<svg id="Layer_1" data-name="Layer 1" xmlns="http://www.w3.org/2000/svg" width="2317.3" height="940.3" viewBox="0 0 2317.3 940.3">
  <title>logo</title>
  <g>
    <path d="M1354.4,687.2c-7.2,1.6-38.9,11.2-47.6,14.4-6,2.2-19.3,8-29.5,12.9s-25.1,11.5-32.8,14.6l-14.1,5.9-9.8,4c-5.3,2.1-14.1,5.9-19.5,8.4L1173.5,760l-13.1,5.9c-2.5,1.2-9.8,4.4-16,7.2l-14.1,6.4c-2.2,1.1-18.4,7-35.5,13-6,2-25.7,5.4-34.9,6-36.8,2.2-61.7-9.3-73.6-34-2.7-5.5-5.7-18.6-7.5-31.2-1-8-2.4-10.8-7.4-14.7-2.9-2.3-4.8-3.2-5.6-2.7a8.8,8.8,0,0,1-2.9,1.1c-2.3.3-6.2,3.3-7.5,5.8s-1,1.4-1.1.9,2.3-6,5.3-12.2,5.7-13,5.9-14.5c0.6-3.9-.6-11.1-2.3-13.8s-7.5-4.7-13.5-4c-4.2.5-5.6,1.2-9.7,5.4-6.2,6.2-29.5,36.7-35.7,46.7-17.6,28.8-33.2,71-36.6,99-2.5,21.1-1.3,28.7,4.8,31.7,3.5,1.7,6.7,1.2,9.9-1.5s2-1.2-.9,4.6c-18.1,35.5-44.8,69-62.5,78.1-5,2.5-6.9,3-10.8,2.2-5.6-1-11.2-4.9-16-11s-9.1-15-8.4-16a1,1,0,0,0-.4-1.3c-1.8-1.3-6-18.6-8.8-35.8-8.3-51.5-9-56.8-9.7-78.8-0.2-6-.4-13-0.5-15.6s0-5.1.3-5.5-2.1-20.5-3.4-22.6-10.9-6.8-14.5-6.3c-1.8.3-3.7,1-4.1,1.5a4.3,4.3,0,0,1-2.9,1.2c-3,.2-6,6.4-7.8,15.9a65.8,65.8,0,0,1-2.4,9.4c-0.5,1-1.5,3.6-2.4,5.7s-2.7,7.2-4.3,11.1-3,8.2-3.3,9.4-2.2,7.3-4.4,13.6c-4.2,12-7.4,24.7-11.4,44.4s-10.1,41.8-15.3,55.1-6,15.7-15.3,43.8c-7.9,23.9-12.1,33.2-18.4,40.4-4.8,5.4-10.3,9.4-14.4,10.2s-8.5-3.5-12-10.4c-4.3-8.6-7.1-22.2-9.2-44.5-3.3-35.3-3.4-43.5-1-51s5.9-27,8.4-45.6c1.1-8.4,2.5-18,3-21.3,1.5-9.1,2.1-13.9,2-15.4s2.4-5.9,9.7-18.9a16.5,16.5,0,0,0,2-5.7c-0.1-2.4-4.9-7.4-7.3-7.3s-1.6-2.4-.2-10.4c1-5.9.6-16.5-.9-19.5-2.7-6-13.2-11.3-16.6-8.5-0.9.7-1.9,1.1-2.2,0.8s-6.3,3.6-9.9,7.6c-1.7,1.9-7.2,9.7-12.4,17.6s-12.4,18.5-15.9,23.7c-25,37.3-30.4,46.2-37,61.6-17.3,39.9-30.8,76.8-34.7,95.1-0.3,1.8-1.6,6.8-2.6,11.2-3.4,13.7-6.7,37-6.6,46.1,0.5,29.5,1.7,45.3,4,49.9,3,6.2,9.8,8.6,16.3,5.5,11.3-5.1,30-29,40.9-52,1.9-3.8,5.8-14,8.8-22.4,7.6-21.6,11.4-31.6,15.9-41.7,2.2-4.8,5.1-11.6,6.7-15l3.7-8.2c1.9-3.7,9.4-27.2,10.9-33.9,3.8-16.6,8.6-34,9.5-34.1s-2.4,45.7-4.2,56.7c-1.5,8.9-3.5,8.7-1.4,8.1s1.8,0.1,1.6,3.8-0.1,17.7.3,24.8c1,18.8,7.2,43.2,13.7,53.7s16.5,12.2,27.4,1.9c4.9-4.7,17.1-21.7,21.6-30.1,12.5-23.4,16.9-35.9,22.8-63.4,3.4-16,7.4-31.6,10.8-42.4,1.2-4,4.7-14.8,7.6-24.3s7.2-22.6,9.2-29.3c6-19.2,18.5-44,22.4-44.6,0.4-.1,2.1,3.6,3.7,8.1,4.8,13.3,7.5,32.8,8.6,61,0.8,20.5,9.2,57.8,16.8,73.9,8.7,18.3,20.7,29.3,33.3,30.5,14.3,1.2,33.3-12.9,53.8-40,11.1-14.7,15-20.7,22-34.3l5.3-10.4,3.4-6.2c1.2-2.2,4.3-9.1,7-15.3,4.4-10.2,5.8-12.7,15.5-25.9,5.9-7.9,11.8-16.2,13-18.4s3.6-6,5.2-8.6,6.6-12,11.1-21c8.3-16.2,18.6-31.7,20.2-30.5s2.7,4.5,5.2,9.3c18.5,37.2,47.3,56.6,82.1,55.4,10.5-.3,25.3-3,38.9-7.1,17.7-5.3,21.8-6.9,65.3-26.9,2.9-1.4,12.5-5.9,21.4-10.3s16.7-8.1,17.4-8.3l21.6-9.9c34.4-16.1,45.1-20.4,65.3-27.1,14.3-4.6,46.5-16.8,47.2-17.8s6.4-2.9,13.6-5.7a118.1,118.1,0,0,1,14.4-4.8C1454.7,668,1356.7,686.7,1354.4,687.2ZM942.6,713.1a149.1,149.1,0,0,1-5.6,20.8c-1.3,3.8-5.5,15.8-9.2,26.8s-7.8,22.7-9.1,26.3c-3.1,8.9-10.6,25.7-18,40.5-5.9,11.6-6.6,12.8-12,17.9a74.2,74.2,0,0,1-8.2,7c-2.1,1.3-2.7,1.3-3.4-.4-4.2-8.9,4.2-46.7,17.6-79.1,8-19.3,13.6-29.2,26.4-46.4,9.7-13,12.6-16.4,17.2-20l5.6-4.3v3.4A59.6,59.6,0,0,1,942.6,713.1Zm9.7,20.9a123.2,123.2,0,0,1-3.4,13.1c-4,12.1-25.5,54.1-32.4,63.1l-3.3,4.4,3.4-8.7c4.1-10.3,17-38.6,18.9-41.2,0.7-1,4.4-8.9,8.2-17.6,6.5-15.1,11.3-25.1,10.1-20.8A67.2,67.2,0,0,0,952.4,734ZM624.8,782.2c3.2,6.5,3.8,12.2,1.7,17.6a76.3,76.3,0,0,0-3.1,11.2c-4.2,21.6-15.8,58.4-26.6,84.4a404.7,404.7,0,0,0-17.2,53.3c-4.3,17.7-12.1,36.6-20.8,50.6-2.1,3.5-9.3,15.9-15.8,27.5-17,30.1-27.4,42.6-32.4,38.8s-6.9-13.8-6.2-26.3c1.2-19.7,6.3-50.4,11.5-69.5,9.4-34.3,23.3-70.9,43.5-114.7,2.5-5.4,5.9-13.2,7.7-17.3,7.2-16.4,11.4-23.3,22.9-38.4,6.2-8.1,12.3-15.3,13.6-16.1a60.8,60.8,0,0,0,5.6-3.9,34.1,34.1,0,0,1,6.8-4C620.2,773.8,620.8,774.2,624.8,782.2Z" transform="translate(-72.1 -368.5)" fill="#070707" stroke="#000" stroke-miterlimit="10" stroke-width="10"/>
    <path d="M510.9,379.3c-12.2-5-25.6-6.6-44.5-5.4-12.8.7-45.8,6-55.9,8.8-6.3,1.8-31.5,10.5-37.7,13l-11.9,4.9c-9.4,3.8-25.3,11-39.1,17.6-3.7,1.8-10.4,5.4-15,8.1l-11,6.2c-5.9,2.9-16.9,10.1-45.6,30.2-16,11.1-22.8,16.7-65.6,54.7-14.3,12.8-38.1,35.9-45.8,44.4l-14.1,15.7c-16.6,18.3-20.2,22.8-26.8,33.5-13.4,21.7-19,41-20.5,70.6-1.2,23.8.5,34.5,8,50.1,3.2,6.7,10.3,17.6,14.3,21.8,8.3,8.8,13.2,12.8,25.3,21.3,26.4,18.5,43.9,23.8,115,34.6,76.7,11.9,116.9,23.3,153.8,43.7,14.1,7.9,36.6,25.6,45.9,36.2,18.6,21.3,25.9,41.7,24.6,67.8-0.5,9.7-3.2,26.9-4.9,31.6a13.3,13.3,0,0,0-.9,3.7c0,0.8-1.9,7.4-4.4,14.9-5.2,15.7-13.4,33.9-30.1,64.5-6.1,11.2-10.5,17.8-23.8,35.9a372.1,372.1,0,0,1-23.6,28.8c-12.8,13.4-26.4,26.7-33,32.2-12.9,10.7-81.9,57.4-90.1,61-1.1.4-6,3.4-11.1,6.5-20,12.3-55.8,31.4-88.5,47s-33.1,16.1-29.5,19.6c1.9,1.8,2.9,1.5,21.9-7.2s55.3-27.5,76.2-39.3l12.1-6.9c10-5.6,55.2-34.1,76.9-48.5,40.9-31.8,7.3-2.3,66.2-52,17.6-20.1,15.7-16.8,17.6-19.1,16.8-18.6,42.9-58.4,53.2-83,5.9-14.1,16.4-47.1,18.6-57.8q9.6-48.2-8.4-87.5a94.3,94.3,0,0,0-33.4-38.4c-12.6-8.2-39.6-22-57.6-29.5-26.6-10.9-69.6-21.7-122.6-30.4-57.3-9.6-71.4-12.6-88.6-19-19.7-7.3-37.2-20-47.8-34.8-20.9-28.9-29.1-62-22.3-89.4,2.8-11.7,11.8-31.3,21.2-46.5,15.6-25.2,21.5-33.7,30.6-44,15.4-17.5,42.8-43.8,61.6-59.4,9.2-7.5,53.4-39,68.7-48.9,29.4-19.1,76.2-43.2,104.2-53.8l12.2-4.7c10.8-4.2,27.5-10.1,44.8-15.9,19.6-6.6,42.4-9.8,56.9-7.8,16.7,2.3,21.5,4,31.5,11.3,7.9,5.8,8.6,6.5,11,11.8s4.2,17.5,2.8,26.2c-0.8,5.8-4.1,18.5-5.6,22.1l-4.2,10.6a484.1,484.1,0,0,1-29.3,60.4c-5.7,9.7-12.1,19.3-24.6,36.7-4.3,6-9.8,14-12.1,17.8s-7.2,11.6-11,17.4-8.3,12.5-9.9,15-5,7.9-7.5,11.8-7.5,12-10.9,18c-5.5,9.6-12.5,20.4-35,53.8-12.2,18.3-15.6,23.5-21.4,34-8.8,15.6-9.5,17-14.2,27.3-6.5,14.3-7.2,16.6-6.9,21.9,0.2,2.9.4,5.9,0.3,6.6s2.3,3.2,5.3,5.7c5.3,4.4,5.5,4.5,10.1,3.8s9.4-4,11.9-9.8c1.7-4.1,1.5-5.1-2.1-14.1-1-2.6.2-15.8,1.7-16.8a46.9,46.9,0,0,0,3.2-7.3c2.9-8.2,6.1-15.5,8.1-19.1s7.8-14.7,8.9-17,6.8-12.8,12-22.2c7.8-13.7,14.2-23.5,27.3-41.4,7-9.5,13.5-18.8,14.4-20.4s4.2-6.6,7-11,7.5-11.8,10.4-16.5,8.1-13.4,11.7-19.3,9.2-16.1,12.4-22.6,8-15.8,10.6-20.8c5.1-9.7,16.4-30.8,19.6-36.5,14.7-26.8,25.2-54,26.6-69C541.1,403.5,532.1,387.7,510.9,379.3Z" transform="translate(-72.1 -368.5)" fill="#070707" stroke="#000" stroke-miterlimit="10" stroke-width="10"/>
  </g>
  <g>
    <path d="M709,1094.8l13.7-23.6a8.8,8.8,0,0,1,12.9-2.7c1.9,1.1,32.7,23.6,57.4,23.6,19.8,0,34.6-12.9,34.6-29.3,0-19.4-16.3-32.7-48.3-45.6-35.7-14.4-71.4-37.2-71.4-82.1,0-33.8,25.1-73,85.5-73,38.8,0,68.4,19.8,76,25.5,3.8,2.3,4.9,8.7,2.3,12.5l-14.4,21.7c-3,4.6-8.7,7.6-13.3,4.6-3-1.9-31.9-20.9-52.8-20.9s-33.4,14.4-33.4,26.6c0,17.9,14.1,30,44.8,42.6,36.9,14.8,79.4,36.9,79.4,85.9,0,39.1-33.8,75.2-87.4,75.2-47.9,0-76-22.4-83.6-29.6C707.5,1102.7,705.6,1100.8,709,1094.8Z" transform="translate(-72.1 -368.5)"/>
    <path d="M1017.2,862.2A136.6,136.6,0,0,1,1154,999.4c0,76-60.8,136.4-136.8,136.4s-136.4-60.4-136.4-136.4S941.2,862.2,1017.2,862.2Zm0,224.2c47.9,0,87.4-39.1,87.4-87s-39.5-87.8-87.4-87.8-87,39.9-87,87.8A87.3,87.3,0,0,0,1017.2,1086.4Z" transform="translate(-72.1 -368.5)"/>
    <path d="M1169.2,873.2a7.5,7.5,0,0,1,7.2-7.2h36.1a7.2,7.2,0,0,1,7.2,7.2v155.4c0,32.3,22,57.8,55.1,57.8s55.5-25.5,55.5-57.4V873.2a7.2,7.2,0,0,1,7.2-7.2h36.1a7.5,7.5,0,0,1,7.2,7.2v158.1c0,57.8-46,104.5-106,104.5s-105.6-46.7-105.6-104.5V873.2Z" transform="translate(-72.1 -368.5)"/>
    <path d="M1415.4,873.2a7.2,7.2,0,0,1,7.2-7.2h154.7a7.2,7.2,0,0,1,7.2,7.2v31.2a7.2,7.2,0,0,1-7.2,7.2H1464.8v62.3h93.9a7.5,7.5,0,0,1,7.2,7.2v31.5a7.2,7.2,0,0,1-7.2,7.2h-93.9v66.5h112.5a7.2,7.2,0,0,1,7.2,7.2v31.2a7.2,7.2,0,0,1-7.2,7.2H1422.6a7.2,7.2,0,0,1-7.2-7.2V873.2Z" transform="translate(-72.1 -368.5)"/>
    <path d="M1608.1,873.2a7.5,7.5,0,0,1,7.2-7.2h35.3a7.5,7.5,0,0,1,7.2,7.2v251.6a7.5,7.5,0,0,1-7.2,7.2h-35.3a7.5,7.5,0,0,1-7.2-7.2V873.2Z" transform="translate(-72.1 -368.5)"/>
    <path d="M1696.2,873.2a7.1,7.1,0,0,1,6.8-7.2h90.1c73.3,0,133.4,59.7,133.4,132.6s-60,133.4-133.4,133.4h-90.1a7.1,7.1,0,0,1-6.8-7.2V873.2Zm92.3,212.4c49.4,0,85.5-37.2,85.5-87S1838,912,1788.6,912h-43.3v173.7h43.3Z" transform="translate(-72.1 -368.5)"/>
    <path d="M1909,1122.1l118.2-255.7a6.8,6.8,0,0,1,6.5-4.2h3.8c3.8,0,5.3,1.9,6.5,4.2l117,255.7c2.3,4.9-.8,9.9-6.5,9.9h-33.1c-5.7,0-8.4-2.3-11-7.6l-18.6-41H1978.2l-18.6,41a11.5,11.5,0,0,1-11,7.6h-33.1C1909.8,1132,1906.7,1127.1,1909,1122.1Zm164.2-80.9-38-83.6H2034l-37.2,83.6h76.4Z" transform="translate(-72.1 -368.5)"/>
    <path d="M2164.8,869a7.1,7.1,0,0,1,7.2-6.8h9.5l158.1,168h0.4V873.2a7.2,7.2,0,0,1,7.2-7.2h35a7.5,7.5,0,0,1,7.2,7.2V1129a7.1,7.1,0,0,1-7.2,6.8H2373L2214.2,961.4h-0.4v163.4a7.2,7.2,0,0,1-7.2,7.2H2172a7.5,7.5,0,0,1-7.2-7.2V869Z" transform="translate(-72.1 -368.5)"/>
  </g>
</svg>
