<svg id="Layer_2" data-name="Layer 2" xmlns="http://www.w3.org/2000/svg" xmlns:xlink="http://www.w3.org/1999/xlink" width="350" height="350" viewBox="0 0 350 350"><defs><linearGradient id="linear-gradient" x1="-344.3" y1="-0.42" x2="-342.36" y2="-0.42" gradientTransform="matrix(131.38, -187.63, 187.63, 131.38, 45380.36, -64190.4)" gradientUnits="userSpaceOnUse"><stop offset="0" stop-color="#fff"/><stop offset="0.06" stop-color="#eee"/><stop offset="0.17" stop-color="#c1c1c1"/><stop offset="0.33" stop-color="#787878"/><stop offset="0.52" stop-color="#151515"/><stop offset="0.56"/><stop offset="0.94"/><stop offset="1"/></linearGradient><mask id="mask" x="-148.15" y="-163.8" width="681" height="681.1" maskUnits="userSpaceOnUse"><g id="SVGID"><polygon points="-148.2 236.9 132.4 -163.8 532.8 116.7 252.3 517.3 -148.2 236.9" fill="url(#linear-gradient)"/></g></mask></defs><title>net_awards-logo15</title><rect width="750" height="350" fill="none"/><path d="M334,190.5A160.1,160.1,0,1,0,206.5,318Z" fill="#bfa624"/><g mask="url(#mask)"><path d="M334,190.5A160.1,160.1,0,1,0,206.5,318Z" fill="#a99000"/></g><path d="M161.1,146.1l-6.9-1.7h-0.1a1.8,1.8,0,0,1-1.3-1.8h0V109.4c0-27.2-22.1-33-36.5-33a45.1,45.1,0,0,0-22.2,5.9L92.3,78,65.6,80.9V91.4l11.8,2a1.7,1.7,0,0,1,1.1,1.5V115h0v27.7h0a1.7,1.7,0,0,1-1.3,1.8H77l-6.5,1.7v12.4h37.7V146.3l-6.3-1.8a1.7,1.7,0,0,1-1.2-1.8h0V109.1C100.7,95,113.4,95,116.1,95h0.1c2.3,0,6.5.4,9.8,2.8s4.7,5.1,4.7,10.3v20.6h0v14a1.7,1.7,0,0,1-1.3,1.8h0l-6.2,1.7v12.4h37.9V146.1h0Zm20.3-37.3c0-14.1,12.6-14.1,15.3-14.1s14.4,1.3,14.4,13.1v1.1H181.4Zm0,17h51.8V109.4c0-27.2-22.1-33-36.5-33S159,83.8,159,107.7v21c0,24,23.2,31.5,38.2,31.5,18.1,0,28-5.7,35.3-10V137H212.3a23.4,23.4,0,0,1-15.1,5.5c-2.7,0-15.8-1-15.8-15.1v-1.6ZM264,136.7V94.6h20.8V78H264V59.5L241.4,62V78h-7.6V94.6h7.6V137c0,22,20.1,22,27,22,9.2,0,19.8-5,19.8-5V138.9H276.3s-2,2.5-7.2,2.5c-3.4,0-5.1-1.4-5.1-4.7" fill="#fff"/><path d="M230.3,234.7v-5.8H209.2l-2.4,23.9,1.2,0.5a9,9,0,0,1,4-4.8c1.8-1.1,4.4-1.6,7.6-1.6a9.5,9.5,0,0,1,7.6,3.2q2.7,3.2,2.7,8.7c0,4.3-.9,7.6-2.7,9.7s-4.7,3.2-8.6,3.2a11.3,11.3,0,0,1-7.9-2.7c-1.9-1.8-2.9-4.4-2.9-7.9h-1.4v0.2c-0.1,4,1,6.9,3.4,9a13.3,13.3,0,0,0,8.9,3c4.4,0,7.7-1.3,9.8-4s3.2-6.2,3.2-10.7-1.1-7.5-3.4-10a10.9,10.9,0,0,0-8.7-3.6,17.9,17.9,0,0,0-6.6,1.1,11.4,11.4,0,0,0-4.1,2.9l1.8-18.6h18v4.2h1.7Zm-45.8,38.1h19.3v-1.6H195V228.7l-11.8,2.5v1.5l10.2-2.3v40.7h-8.8v1.7h-0.1Zm-6.7-17.4q0,7.7-3,12a10,10,0,0,1-8.7,4.4,10.2,10.2,0,0,1-8.8-4.4q-3-4.3-3-12v-9.2q0-7.7,3-12a11,11,0,0,1,17.4,0q3,4.3,3,12v9.2h0.1Zm1.6-9.2c0-5.7-1.2-10.1-3.5-13.2a11.6,11.6,0,0,0-9.9-4.7,11.9,11.9,0,0,0-9.9,4.7c-2.3,3.1-3.5,7.5-3.5,13.2v9.3c0,5.7,1.2,10.1,3.5,13.2a11.7,11.7,0,0,0,9.9,4.7,11.6,11.6,0,0,0,9.8-4.7c2.3-3.1,3.5-7.5,3.5-13.3v-9.2h0.1Zm-31.7,26.6V264h-1.6v7.2H123.8V271l12.6-14.7a82.6,82.6,0,0,0,6.7-8.8,13.8,13.8,0,0,0,2.4-7.4q0-5.5-3.3-8.7c-2.2-2.1-5.1-3.1-8.8-3.1a12.2,12.2,0,0,0-12.8,12.8v0.2H122a11.3,11.3,0,0,1,3-8.2,11,11,0,0,1,8.3-3.2c3.4,0,6,.9,7.7,2.7a10.1,10.1,0,0,1,2.7,7.5,13.2,13.2,0,0,1-1.9,6.4,50.1,50.1,0,0,1-6,8.2l-14.4,16.6v1.6h26.3Z" fill="#fff"/><path d="M270.1,184.7a13,13,0,0,0-4.8-3.2,17.1,17.1,0,0,0-6.5-1.2,12.5,12.5,0,0,0-8,2.4,7.2,7.2,0,0,0-3,5.9,6.8,6.8,0,0,0,2.6,5.7,22.6,22.6,0,0,0,8.4,3.2c3.7,0.8,6.3,1.9,7.7,3.3a6.3,6.3,0,0,1,2.2,4.7,6.2,6.2,0,0,1-2.7,4.9,11.4,11.4,0,0,1-7.2,2.1,19.2,19.2,0,0,1-5.5-.8,11.6,11.6,0,0,1-4.4-2.7v-5h-1.6v5.8a14.8,14.8,0,0,0,5,3.2,17.6,17.6,0,0,0,6.6,1.1,13.2,13.2,0,0,0,8.3-2.4,7.4,7.4,0,0,0,3.1-6.2,7.3,7.3,0,0,0-2.8-6.1c-1.9-1.5-4.6-2.6-8.3-3.5s-6.6-2-7.9-3.2a5.7,5.7,0,0,1,.4-9,10.7,10.7,0,0,1,6.9-2,16,16,0,0,1,5.6.9,10.1,10.1,0,0,1,4,2.7v5.3h1.6v-5.9h0.3Zm-54.7,12.5c0-4.5.9-8.2,2.7-11A8.8,8.8,0,0,1,226,182a10.5,10.5,0,0,1,7.3,2.4,14,14,0,0,1,3.8,5.9v15.3a11,11,0,0,1-4.1,5.2,12.1,12.1,0,0,1-7.1,1.9c-3.5,0-6.1-1.3-7.8-4s-2.7-6.2-2.7-10.7v-0.8h0Zm21.7,16.3h6.5v-1.6h-4.9V166.5h-6.6v1.6H237v18.8a12.8,12.8,0,0,0-4.4-4.8,11.9,11.9,0,0,0-6.6-1.8,10.2,10.2,0,0,0-9,4.6q-3.3,4.5-3.3,12.3v0.6c0,5,1.1,9,3.2,11.9a10.7,10.7,0,0,0,9,4.4,13,13,0,0,0,6.7-1.6,11.4,11.4,0,0,0,4.4-4.3v5.3ZM197,180.9h-4.9v1.6H197v29.4h-4.9v1.6h11.5v-1.6h-4.9V192.2a13.2,13.2,0,0,1,3.5-7.4,9.3,9.3,0,0,1,7.1-2.8l2.1,0.2,0.2-1.4-1-.2h-1.3a10.9,10.9,0,0,0-6.6,1.9,11.7,11.7,0,0,0-4,5.4v-1.1l-0.3-5.7H197Zm-34.7,29.6a6.7,6.7,0,0,1-2.2-5.1c0-2.5,1.2-4.5,3.6-6.1s5.6-2.3,9.6-2.3h8v7.7a13.1,13.1,0,0,1-5.1,5.8,14.9,14.9,0,0,1-8,2.1,8,8,0,0,1-5.9-2.1m25,3v-1.6h-3.9a9.9,9.9,0,0,1-.3-2.4,20.9,20.9,0,0,1-.1-2.5V190.7a9.7,9.7,0,0,0-3.2-7.7,12.5,12.5,0,0,0-8.4-2.7,20.8,20.8,0,0,0-6.6,1.1,21.9,21.9,0,0,0-5.5,2.8v6.2h1.6v-5.2a15.4,15.4,0,0,1,4.6-2.4,18.1,18.1,0,0,1,5.8-.9c3.2,0,5.6.8,7.3,2.3a8,8,0,0,1,2.6,6.3v4.8h-8.1c-4.5,0-8.1.9-10.8,2.8a8.2,8.2,0,0,0-4,7.2,8.4,8.4,0,0,0,2.6,6.4,10.1,10.1,0,0,0,7.1,2.5,15.4,15.4,0,0,0,7.9-1.9,13.4,13.4,0,0,0,5.2-4.8V208a16.9,16.9,0,0,0,.1,2.3c0.1,0.7.3,1.8,0.5,3.2h5.6Zm-69.1-32.6h-9.7v1.6h3.4l9,31h1.6l7.9-24.5,1.6-5.5h0.2l1.4,5.5,8,24.5h1.6l9-31h3.4v-1.6H146v1.6h4.4L144.2,204l-1.7,6.7h-0.2l-2.1-6.7-7.3-23.2h-1.7L123.9,204l-2.1,6.7h-0.2l-1.7-6.7-6.2-21.5h4.5v-1.6h0ZM85.9,210.5a6.7,6.7,0,0,1-2.2-5.1c0-2.5,1.2-4.5,3.6-6.1s5.6-2.3,9.6-2.3h8v7.7a13.1,13.1,0,0,1-5.1,5.8,14.9,14.9,0,0,1-8,2.1,8.4,8.4,0,0,1-5.9-2.1m25.1,3v-1.6h-4a9.9,9.9,0,0,1-.3-2.4,20.9,20.9,0,0,1-.1-2.5V190.7a9.7,9.7,0,0,0-3.2-7.7,12.5,12.5,0,0,0-8.4-2.7,20.8,20.8,0,0,0-6.6,1.1,21.9,21.9,0,0,0-5.5,2.8v6.2h1.6v-5.2a15.4,15.4,0,0,1,4.6-2.4,18.1,18.1,0,0,1,5.8-.9c3.2,0,5.6.8,7.3,2.3a8,8,0,0,1,2.6,6.3v4.8H96.7c-4.5,0-8.1.9-10.8,2.8a8.2,8.2,0,0,0-4,7.2,8.4,8.4,0,0,0,2.6,6.4,10.1,10.1,0,0,0,7.1,2.5,15.4,15.4,0,0,0,7.9-1.9,13.4,13.4,0,0,0,5.2-4.8V208a16.9,16.9,0,0,0,.1,2.3c0.1,0.7.3,1.8,0.5,3.2H111Z" fill="#fff"/><!-- <path d="M270.6,274.8a71.3,71.3,0,0,1,6.4-14.5l3.9-.4a77.3,77.3,0,0,0-3.8,14.3Zm8.8,0a71.4,71.4,0,0,1,6.4-14.5l3.8-.4a87.5,87.5,0,0,0-3.8,14.3Z" fill="#a99000"/><path d="M292.9,260.9a34.3,34.3,0,0,1,7.6-.7c4.8,0,8.2,1.1,10.7,3.4s5,8,5,15.5-2,13.3-5.4,16.2-6.4,3.7-11.7,3.7a55.4,55.4,0,0,1-6.2-.4V260.9Zm7.5,31.9h1.3c3.6,0,6.7-3.5,6.7-14.1,0-7.9-2.1-12.7-6.6-12.7a4.2,4.2,0,0,0-1.5.2v26.5Z" fill="#a99000"/><path d="M326.4,287.5c0.1,4.3,2.6,5.9,5.9,5.9a16.4,16.4,0,0,0,5.3-.9l1,5.4a23.1,23.1,0,0,1-7.7,1.3c-7.6,0-11.7-5-11.7-13.7s4.8-14.9,11.2-14.9,9.5,4.7,9.5,13.2a19.8,19.8,0,0,1-.2,3.9H326.4Zm6.7-5.2c0-3.6-.9-6.4-3.1-6.4s-3.4,3.6-3.5,6.4H333Z" fill="#a99000"/><path d="M349.2,270.9l2.1,12.4c0.4,2.5.8,5,1.2,7.8h0.1c0.3-2.9.7-5.2,1.1-7.8l2.2-12.4h7.4l-7.5,27.9h-6.9l-7.6-27.9h7.9Z" fill="#a99000"/><path d="M371.6,287.5c0.1,4.3,2.6,5.9,5.9,5.9a16.4,16.4,0,0,0,5.3-.9l1,5.4a23.1,23.1,0,0,1-7.7,1.3c-7.6,0-11.7-5-11.7-13.7s4.8-14.9,11.2-14.9,9.5,4.7,9.5,13.2a19.8,19.8,0,0,1-.2,3.9H371.6Zm6.7-5.2c0-3.6-.9-6.4-3.1-6.4s-3.4,3.6-3.5,6.4h6.6Z" fill="#a99000"/><path d="M389.2,259.4h7.5v39.4h-7.5V259.4Z" fill="#a99000"/><path d="M422.4,284.8c0,11.6-6.4,14.5-10.7,14.5-6.7,0-10.7-5.2-10.7-14.3s5.2-14.5,10.8-14.5S422.4,276,422.4,284.8Zm-13.9,0c0,4.8.7,8.8,3.4,8.8s3-4.7,3-8.8-0.6-8.7-3.1-8.7S408.5,281,408.5,284.8Z" fill="#a99000"/><path d="M426.6,279.8c0-3.4-.1-6.2-0.2-8.8h6.5l0.4,3.2h0.1a6.3,6.3,0,0,1,5.8-3.6c6.2,0,8.7,6.6,8.7,14.4,0,9.9-4.4,14.4-9.1,14.4a5.4,5.4,0,0,1-4.6-2.7h-0.1v13.2h-7.5v-30Zm7.5,8.8a5.7,5.7,0,0,0,.4,2.4c0.6,1.7,1.5,2.2,2.4,2.2,2.6,0,3.5-3.9,3.5-8.3s-1.3-8.2-3.5-8.2a2.9,2.9,0,0,0-2.5,2.4,4.6,4.6,0,0,0-.3,2v7.5Z" fill="#a99000"/><path d="M458.3,287.5c0.1,4.3,2.6,5.9,5.9,5.9a16.4,16.4,0,0,0,5.3-.9l1,5.4a23.1,23.1,0,0,1-7.7,1.3c-7.6,0-11.7-5-11.7-13.7s4.8-14.9,11.2-14.9,9.5,4.7,9.5,13.2a19.8,19.8,0,0,1-.2,3.9H458.3Zm6.7-5.2c0-3.6-.9-6.4-3.1-6.4s-3.4,3.6-3.5,6.4H465Z" fill="#a99000"/><path d="M475.9,279.3c0-2.8-.1-5.8-0.2-8.4h6.5l0.4,4h0.2c1.3-3,3.5-4.5,5.5-4.5h1.6V278h-1.6c-1.6,0-3.7,1.1-4.6,4a11.3,11.3,0,0,0-.3,2.8v14.1h-7.5V279.3Z" fill="#a99000"/><path d="M522.2,284.8c0,11.6-6.4,14.5-10.7,14.5-6.7,0-10.7-5.2-10.7-14.3s5.2-14.5,10.8-14.5S522.2,276,522.2,284.8Zm-13.9,0c0,4.8.7,8.8,3.4,8.8s3-4.7,3-8.8-0.6-8.7-3.1-8.7S508.3,281,508.3,284.8Z" fill="#a99000"/><path d="M527.7,298.8V276.2h-3.8v-5.3h3.8v-1.1c0-3.1.6-6,2.9-8.3a9.1,9.1,0,0,1,6.7-2.6,14.9,14.9,0,0,1,4.5.6l-0.9,5.8a6.4,6.4,0,0,0-2.3-.3c-2.5,0-3.4,2.2-3.4,4.6v1.3H540v5.3h-4.8v22.6h-7.5Z" fill="#a99000"/><path d="M560.5,263.4v7.5H566v5.3h-5.5v12.7c0,3.3,1.4,4,2.9,4l1.9-.2v5.8a17.6,17.6,0,0,1-4.6.5,7.5,7.5,0,0,1-5.4-1.8c-1.5-1.5-2.4-3.6-2.4-8V276.2h-3.3v-5.3h3.3v-5.8Z" fill="#a99000"/><path d="M569.5,259.4h7.5v14.5h0.1a8.7,8.7,0,0,1,2.4-2.4,7.5,7.5,0,0,1,3.8-1c5.1,0,7.1,4.3,7.1,11.4v16.9h-7.5V281.9c0-2.7-.5-5.1-2.7-5.1s-2.3.7-2.9,2.6a11.2,11.2,0,0,0-.3,2.1v17.3h-7.5V259.4Z" fill="#a99000"/><path d="M601.8,287.5c0.1,4.3,2.6,5.9,5.9,5.9a16.4,16.4,0,0,0,5.3-.9l1,5.4a23.1,23.1,0,0,1-7.7,1.3c-7.6,0-11.7-5-11.7-13.7s4.8-14.9,11.2-14.9,9.5,4.7,9.5,13.2a19.8,19.8,0,0,1-.2,3.9H601.8Zm6.7-5.2c0-3.6-.9-6.4-3.1-6.4s-3.4,3.6-3.5,6.4h6.6Z" fill="#a99000"/><path d="M632.9,298.8V284.1l-8.4-23.7h8l2.6,9.2c0.7,2.5,1.4,5.3,2,8.2h0.1c0.5-2.8,1.1-5.6,1.8-8.3l2.3-9h7.8l-8.6,23.4v15h-7.5Z" fill="#a99000"/><path d="M654.8,287.5c0.1,4.3,2.6,5.9,5.9,5.9a16.4,16.4,0,0,0,5.3-.9l1,5.4a23.1,23.1,0,0,1-7.7,1.3c-7.6,0-11.7-5-11.7-13.7s4.8-14.9,11.2-14.9,9.5,4.7,9.5,13.2a19.8,19.8,0,0,1-.2,3.9H654.8Zm6.7-5.2c0-3.6-.9-6.4-3.1-6.4s-3.4,3.6-3.5,6.4h6.6Z" fill="#a99000"/><path d="M685,298.8l-0.4-2.7h-0.1a7.3,7.3,0,0,1-6.2,3.2c-4.2,0-7.4-3.5-7.4-8.5,0-7.3,6.4-10.3,12.8-10.4v-0.6c0-2.2-1.3-3.8-3.9-3.8a10.4,10.4,0,0,0-5.7,1.6l-1.4-5a18.2,18.2,0,0,1,8.7-2.1c8.5,0,9.9,5.9,9.9,11.6v10.4a37.3,37.3,0,0,0,.5,6.4H685Zm-1-13.6c-2.5.1-5.9,0.9-5.9,4.7s1.5,3.8,2.7,3.8a3.2,3.2,0,0,0,3.1-2.4,4.9,4.9,0,0,0,.2-1.3v-4.8Z" fill="#a99000"/><path d="M696.5,279.3c0-2.8-.1-5.8-0.2-8.4h6.5l0.4,4h0.2c1.3-3,3.5-4.5,5.5-4.5h1.6V278h-1.6c-1.6,0-3.7,1.1-4.6,4a11.3,11.3,0,0,0-.3,2.8v14.1h-7.5V279.3Z" fill="#a99000"/><path d="M723.2,259.9a69,69,0,0,1-6.4,14.4l-3.9.5a79.6,79.6,0,0,0,3.8-14.4Zm8.8,0a66.1,66.1,0,0,1-6.4,14.4l-3.9.5a79.6,79.6,0,0,0,3.8-14.4Z" fill="#a99000"/> --></svg>