<svg id="Layer_4" data-name="Layer 4" xmlns="http://www.w3.org/2000/svg" width="550" height="250" viewBox="50 0 550 250"><title>oreilly-logo</title><rect width="750" height="350" fill="none"/><rect x="80.9" y="52" width="476.1" height="131.47" fill="#b9002d"/><polygon points="320.1 95 320.1 83.7 273.3 83.7 273.3 151.1 320.1 151.1 320.1 139.9 284.5 139.9 284.5 123 318.4 123 318.4 111.8 284.5 111.8 284.5 95 320.1 95" fill="#fff"/><polygon points="354.8 151.1 354.8 83.7 366 83.7 366 139.9 398.4 139.9 398.4 151.1 354.8 151.1" fill="#fff"/><polygon points="407.6 151.1 407.6 83.7 418.8 83.7 418.8 139.9 451.2 139.9 451.2 151.1 407.6 151.1" fill="#fff"/><rect x="331.8" y="83.7" width="11.2" height="67.33" fill="#fff"/><path d="M133.1,100.9a23.9,23.9,0,1,0,16.9-7,23.9,23.9,0,0,0-16.9,7M115,117.7a35.1,35.1,0,1,1,35,35.1,35.1,35.1,0,0,1-35-35.1h0" fill="#fff"/><path d="M219.8,111.8V95h22.6a8.4,8.4,0,0,1,0,16.8H219.8ZM248,122.2a19.6,19.6,0,0,0-5.6-38.4H208.5v67.3h11.2v-28h15.6l16.9,28h13.1Z" fill="#fff"/><path d="M200.6,90.9a8.3,8.3,0,1,1-8.3-8.3,8.3,8.3,0,0,1,8.3,8.3h0" fill="#fff"/><polygon points="501.2 83.7 487.6 83.7 470.3 108.8 453 83.7 439.4 83.7 464.7 120.4 464.7 151.1 475.9 151.1 475.9 120.4 501.2 83.7" fill="#fff"/><path d="M514.5,97.5a7,7,0,1,1,7-7,7,7,0,0,1-7,7h0m0-15.3a8.3,8.3,0,1,0,8.3,8.3,8.3,8.3,0,0,0-8.3-8.3h0" fill="#fff"/><path d="M512.4,87.7h3.3a1.1,1.1,0,0,1,0,2.1h-3.3V87.7Zm5.7,1.1a2.4,2.4,0,0,0-2.4-2.4h-4.7v8.5h1.4V91.2h2.4l1.7,3.5h1.6l-1.7-3.7a2.4,2.4,0,0,0,1.8-2.4" fill="#fff"/><!-- <path d="M122.3,311l-6.6-38.4h7.8l1.9,15.3c0.5,4.4.9,8.8,1.3,13.5h0.2c0.5-4.7,1.4-8.9,2.2-13.5l2.7-15.3h6l2.6,15.2c0.7,4.3,1.4,8.6,1.8,13.6h0.1c0.5-5,1-9.1,1.5-13.6l1.9-15.2h7.3L146.1,311h-7.7l-2.3-12.6c-0.6-3.5-1.2-7.9-1.7-12.6h-0.1c-0.7,4.6-1.3,8.9-2.1,12.7L129.7,311h-7.4Z" fill="#b9002d"/><path d="M161.3,299.7c0.1,4.3,2.6,5.9,5.9,5.9a16.4,16.4,0,0,0,5.3-.9l1,5.4a23.1,23.1,0,0,1-7.7,1.3c-7.6,0-11.7-5-11.7-13.7s4.8-14.9,11.2-14.9,9.5,4.7,9.5,13.2a19.8,19.8,0,0,1-.2,3.9H161.3Zm6.7-5.2c0-3.6-.9-6.4-3.1-6.4s-3.4,3.6-3.5,6.4h6.6Z" fill="#b9002d"/><path d="M178.6,311c0.1-2.5.2-5.6,0.2-8.3V271.6h7.5v14.4h0.1a6.7,6.7,0,0,1,5.8-3.2c5.4,0,7.9,6.1,7.9,13.6,0,9.7-3.9,15.2-9.1,15.2-2.3,0-4-1-5.5-3.8h-0.2L185,311h-6.4Zm7.7-10a5,5,0,0,0,.3,1.8c0.6,2,1.7,2.6,2.6,2.6,2.5,0,3.5-3.1,3.5-8.5s-1.1-7.9-3.6-7.9-2.1,1.2-2.5,2.6a5.7,5.7,0,0,0-.3,1.7V301Z" fill="#b9002d"/><path d="M214.1,273.1a39.1,39.1,0,0,1,7.8-.7c4.4,0,7.9.6,10.4,3s3.3,5.2,3.3,8.4a12.9,12.9,0,0,1-3.2,9.2,13.5,13.5,0,0,1-9.3,3.6h-1.5V311h-7.5V273.1Zm7.5,17.4h1.2c3.8,0,5.5-2.7,5.5-6.3s-1.4-6-4.8-6a5.6,5.6,0,0,0-1.8.3v11.9Z" fill="#b9002d"/><path d="M239.5,271.6H247V311h-7.5V271.6Z" fill="#b9002d"/><path d="M264.8,311l-0.4-2.7h-0.1a7.3,7.3,0,0,1-6.2,3.2c-4.2,0-7.4-3.5-7.4-8.5,0-7.3,6.4-10.3,12.8-10.4V292c0-2.2-1.3-3.8-3.9-3.8a10.4,10.4,0,0,0-5.7,1.6l-1.4-5a18.2,18.2,0,0,1,8.7-2.1c8.5,0,9.9,5.9,9.9,11.6v10.4a37.3,37.3,0,0,0,.5,6.4h-6.7Zm-1-13.6c-2.5.1-5.9,0.9-5.9,4.7s1.5,3.8,2.7,3.8a3.2,3.2,0,0,0,3.1-2.4,4.8,4.8,0,0,0,.2-1.3v-4.8Z" fill="#b9002d"/><path d="M284.6,275.6v7.5h5.5v5.3h-5.5v12.7c0,3.2,1.4,4,2.9,4l1.9-.2v5.8a17.6,17.6,0,0,1-4.6.5,7.5,7.5,0,0,1-5.4-1.8c-1.5-1.5-2.4-3.6-2.4-8V288.4h-3.3v-5.3h3.3v-5.8Z" fill="#b9002d"/><path d="M294.9,311V288.4h-3.8v-5.3h3.8V282c0-3.1.6-6,2.9-8.3a9.1,9.1,0,0,1,6.7-2.6,14.9,14.9,0,0,1,4.5.6l-0.9,5.8a6.4,6.4,0,0,0-2.3-.3c-2.5,0-3.4,2.2-3.4,4.6v1.3h4.8v5.3h-4.8V311h-7.5Z" fill="#b9002d"/><path d="M329.7,297c0,11.6-6.4,14.5-10.7,14.5-6.7,0-10.7-5.2-10.7-14.3s5.2-14.5,10.8-14.5S329.7,288.2,329.7,297Zm-13.9,0c0,4.8.7,8.8,3.4,8.8s3-4.7,3-8.8-0.6-8.7-3.1-8.7S315.8,293.2,315.8,297Z" fill="#b9002d"/><path d="M333.9,291.5c0-2.8-.1-5.8-0.2-8.4h6.5l0.4,4h0.2c1.3-3,3.5-4.5,5.5-4.5h1.6v7.4h-1.6c-1.6,0-3.7,1.1-4.6,4a11.3,11.3,0,0,0-.3,2.8V311h-7.5V291.5Z" fill="#b9002d"/><path d="M350.7,291.5c0-3.1-.2-5.8-0.2-8.4H357l0.3,3.2h0.1a8,8,0,0,1,6.7-3.7c3.1,0,5.1,1.4,6.1,3.8h0.1a9.3,9.3,0,0,1,2.8-2.8,8.2,8.2,0,0,1,3.9-1c5,0,7.2,3.9,7.2,10.7V311h-7.4V294.6c0-3.2-.3-5.8-2.6-5.8s-2.3.9-2.8,2.6a8.2,8.2,0,0,0-.2,1.9V311h-7.4V293.5c0-2-.2-4.7-2.6-4.7a3.1,3.1,0,0,0-2.8,2.5,7.3,7.3,0,0,0-.3,2.1V311h-7.4V291.5Z" fill="#b9002d"/><path d="M405.3,302.2l-1.7,8.8h-7.2l8.3-38.4h9l7.5,38.4h-7.2l-1.7-8.8h-6.9Zm6.2-5.8-1.3-8c-0.4-2.3-.9-6.2-1.3-8.7h-0.2c-0.4,2.6-1,6.6-1.4,8.8l-1.4,8h5.5Z" fill="#b9002d"/><path d="M429.5,283.1l1.5,12c0.4,3,.7,5.8,1,8.4h0.2c0.5-2.6,1-5.7,1.5-8.3l2.5-12.1h5.8l2.4,11.9c0.6,3.1,1.1,5.9,1.4,8.6h0.2c0.2-2.6.5-5.5,1-8.6l1.7-11.9h7.4L448.7,311h-6.3l-2.1-9.7a79.6,79.6,0,0,1-1.4-8.7h-0.1a67.5,67.5,0,0,1-1.6,8.8l-2.4,9.7h-6.4l-6.8-27.9h8Z" fill="#b9002d"/><path d="M470.9,311l-0.4-2.7h-0.1a7.3,7.3,0,0,1-6.2,3.2c-4.2,0-7.4-3.5-7.4-8.5,0-7.3,6.4-10.3,12.8-10.4V292c0-2.2-1.3-3.8-3.9-3.8a10.4,10.4,0,0,0-5.7,1.6l-1.4-5a18.2,18.2,0,0,1,8.7-2.1c8.5,0,9.9,5.9,9.9,11.6v10.4a37.3,37.3,0,0,0,.5,6.4h-6.7Zm-1-13.6c-2.5.1-5.9,0.9-5.9,4.7s1.5,3.8,2.7,3.8a3.2,3.2,0,0,0,3.1-2.4,4.9,4.9,0,0,0,.2-1.3v-4.8Z" fill="#b9002d"/><path d="M482.4,291.5c0-2.8-.1-5.8-0.2-8.4h6.5l0.4,4h0.2c1.3-3,3.5-4.5,5.5-4.5h1.6v7.4h-1.6c-1.6,0-3.7,1.1-4.6,4a11.3,11.3,0,0,0-.3,2.8V311h-7.5V291.5Z" fill="#b9002d"/><path d="M519.2,271.6v31.2c0,2.7.1,5.7,0.2,8.3H513l-0.4-3.1h-0.1a6.8,6.8,0,0,1-5.8,3.6c-5.9,0-8.7-6.6-8.7-14.4,0-9.7,4.2-14.4,9-14.4a4.7,4.7,0,0,1,4.7,2.8h0.1V271.6h7.5Zm-7.5,22.3c0-.5,0-1.1-0.1-1.7s-1.2-3.2-2.7-3.2-3.6,3.8-3.6,8.3,1.4,8.1,3.5,8.1,2-.5,2.6-2.5a4.8,4.8,0,0,0,.2-1.7v-7.4Z" fill="#b9002d"/> --></svg>