<svg width="57px" height="48px" viewBox="0 0 57 48" xmlns="http://www.w3.org/2000/svg" xmlns:xlink="http://www.w3.org/1999/xlink">
    <g stroke="none" stroke-width="1" fill="none" fill-rule="evenodd">
        <g id="quotes--pink" transform="translate(-5.000000, -4.000000)">
            <g id="Group">
                <path d="M8,21.6 C7.94500453,30.784079 7,40.2 24.7,52.8 L24.7,38.3 C33.3961979,37.6255526 40.1086828,30.3723126 40.1086828,21.65 C40.1086828,12.9276874 33.3961979,5.67444742 24.7,5 C15.5157564,4.99983534 8.05499547,12.415921 8,21.6 Z" id="Shape" fill="#EB0066" style="mix-blend-mode: multiply;" transform="translate(24.042054, 28.900000) rotate(-20.000000) translate(-24.042054, -28.900000) "></path>
                <path d="M40.8642548,4.54472456 C31.6800112,4.5445599 24.2192503,11.9606456 24.1642548,21.1447246 C24.1092594,30.3288035 23.0642548,39.7447246 40.8642548,52.3447246 L40.8642548,37.8447246 C47.1207564,38.3299575 53.1211724,35.2668555 56.3979722,29.9150478 C59.6747719,24.56324 59.6747719,17.8262091 56.3979722,12.4744013 C53.1211724,7.12259358 47.1207564,4.05949165 40.8642548,4.54472456 L40.8642548,4.54472456 Z" id="Shape" fill="#990143" style="mix-blend-mode: difference;" transform="translate(41.495755, 28.419636) scale(-1, 1) rotate(-20.000000) translate(-41.495755, -28.419636) "></path>
            </g>
        </g>
    </g>
</svg>