
<svg xmlns="http://www.w3.org/2000/svg" xmlns:xlink="http://www.w3.org/1999/xlink" viewBox="-2 -2 504 504" id="menu" style="transform-origin: 50% 50% 0px; transform: translate3d(0px, 0px, 0px); touch-action: none; -webkit-user-select: none;">
<style>
    /* You can change these default styles any way you want */
    #menu { display: block; margin: 0 auto; overflow: visible; }
    .item .sector { transition: all .1s linear; fill: #111; stroke: #111;  }
    .item:hover .sector { fill: #eee; }
    .menu-trigger { fill: #EA2A55; }
    .menu-trigger:hover { cursor: pointer; }
</style>
<g id="itemsContainer">
        <a class="item" id="item-2" xlink:href=" " xlink:title=" " transform="matrix(0.7071,-0.7071,0.7071,0.7071,-103.55339059327378,249.99999999999997)" data-svg-origin="250 250" style=""><path fill="none" stroke="#111" d="M375,250 l125,0 A250,250 0 0,0 426.7766952966369,73.22330470336314 l-88.38834764831842,88.38834764831844 A125,125 0 0,1 375,250" class="sector"></path></a>
        <a class="item" id="item-3" xlink:href=" " xlink:title=" " transform="matrix(0,-1,1,0,0,500)" data-svg-origin="250 250" style=""><path fill="none" stroke="#111" d="M375,250 l125,0 A250,250 0 0,0 426.7766952966369,73.22330470336314 l-88.38834764831842,88.38834764831844 A125,125 0 0,1 375,250" class="sector"></path></a>
        <a class="item" id="item-4" xlink:href=" " xlink:title=" " transform="matrix(-0.7071,-0.7071,0.7071,-0.7071,249.99999999999997,603.5533905932738)" data-svg-origin="250 250" style=""><path fill="none" stroke="#111" d="M375,250 l125,0 A250,250 0 0,0 426.7766952966369,73.22330470336314 l-88.38834764831842,88.38834764831844 A125,125 0 0,1 375,250" class="sector"></path></a>
        <a class="item" id="item-5" xlink:href=" " xlink:title=" " transform="matrix(-1,0,0,-1,500,500)" data-svg-origin="250 250" style=""><path fill="none" stroke="#111" d="M375,250 l125,0 A250,250 0 0,0 426.7766952966369,73.22330470336314 l-88.38834764831842,88.38834764831844 A125,125 0 0,1 375,250" class="sector"></path></a>
        <a class="item" id="item-6" xlink:href=" " xlink:title=" " transform="matrix(-0.7071,0.7071,-0.7071,-0.7071,603.5533905932738,250.00000000000006)" data-svg-origin="250 250" style=""><path fill="none" stroke="#111" d="M375,250 l125,0 A250,250 0 0,0 426.7766952966369,73.22330470336314 l-88.38834764831842,88.38834764831844 A125,125 0 0,1 375,250" class="sector"></path></a>
        <a class="item" id="item-7" xlink:href=" " xlink:title=" " transform="matrix(0,1,-1,0,500.00000000000006,0)" data-svg-origin="250 250" style=""><path fill="none" stroke="#111" d="M375,250 l125,0 A250,250 0 0,0 426.7766952966369,73.22330470336314 l-88.38834764831842,88.38834764831844 A125,125 0 0,1 375,250" class="sector"></path></a>
</g>
<g id="trigger" class="trigger menu-trigger">
    <circle cx="250" cy="250" r="30"></circle>
</g>
</svg>
