<?xml version="1.0" encoding="utf-8"?>
<!-- Generator: Adobe Illustrator 19.2.0, SVG Export Plug-In . SVG Version: 6.00 Build 0)  -->
<svg version="1.1" id="Layer_1" xmlns="http://www.w3.org/2000/svg" xmlns:xlink="http://www.w3.org/1999/xlink" x="0px" y="0px"
	 width="2742px" height="2048px" viewBox="0 0 2742 2048" style="enable-background:new 0 0 2742 2048;" xml:space="preserve">
<style type="text/css">
	.st0{fill:#070707;stroke:#000000;stroke-width:10;stroke-miterlimit:10;}
	.st1{font-family:'BrandonGrotesque-Bold';}
	.st2{font-size:380px;}
	.st3{letter-spacing:-30;}
</style>
<g>
	<path class="st0" d="M1354.4,687.2c-7.2,1.6-38.9,11.2-47.6,14.4c-6,2.2-19.3,8-29.5,12.9c-10.4,4.9-25.1,11.5-32.8,14.6
		c-7.7,3.1-14,5.8-14.1,5.9c-0.1,0.1-4.5,1.9-9.8,4c-5.3,2.1-14.1,5.9-19.5,8.4c-15.3,7-18.6,8.5-27.6,12.5
		c-4.6,2-10.5,4.6-13.1,5.9c-2.5,1.2-9.8,4.4-16,7.2c-6.2,2.8-12.5,5.6-14.1,6.4c-2.2,1.1-18.4,7-35.5,13c-6,2-25.7,5.4-34.9,6
		c-36.8,2.2-61.7-9.3-73.6-34c-2.7-5.5-5.7-18.6-7.5-31.2c-1-8-2.4-10.8-7.4-14.7c-2.9-2.3-4.8-3.2-5.6-2.7
		c-0.6,0.4-1.9,0.8-2.9,1.1c-2.3,0.3-6.2,3.3-7.5,5.8c-0.5,1-1,1.4-1.1,0.9c-0.1-0.4,2.3-6,5.3-12.2c3-6.4,5.7-13,5.9-14.5
		c0.6-3.9-0.6-11.1-2.3-13.8c-2-3.1-7.5-4.7-13.5-4c-4.2,0.5-5.6,1.2-9.7,5.4c-6.2,6.2-29.5,36.7-35.7,46.7
		c-17.6,28.8-33.2,71-36.6,99c-2.5,21.1-1.3,28.7,4.8,31.7c3.5,1.7,6.7,1.2,9.9-1.5c2.2-1.7,2-1.2-0.9,4.6
		c-18.1,35.5-44.8,69-62.5,78.1c-5,2.5-6.9,3-10.8,2.2c-5.6-1-11.2-4.9-16-11c-3.8-4.7-9.1-15-8.4-16c0.2-0.3,0.1-0.9-0.4-1.3
		c-1.8-1.3-6-18.6-8.8-35.8c-8.3-51.5-9-56.8-9.7-78.8c-0.2-6-0.4-13-0.5-15.6c-0.2-2.6,0-5.1,0.3-5.5c0.9-1.2-2.1-20.5-3.4-22.6
		c-1.9-2.9-10.9-6.8-14.5-6.3c-1.8,0.3-3.7,1-4.1,1.5c-0.5,0.6-1.7,1.1-2.9,1.2c-3,0.2-6,6.4-7.8,15.9c-0.8,4.1-1.9,8.4-2.4,9.4
		s-1.5,3.6-2.4,5.7c-0.8,2.1-2.7,7.2-4.3,11.1c-1.5,4-3,8.2-3.3,9.4c-0.3,1.2-2.2,7.3-4.4,13.6c-4.2,12-7.4,24.7-11.4,44.4
		c-3.9,19.3-10.1,41.8-15.3,55.1c-5.2,13.7-6,15.7-15.3,43.8c-7.9,23.9-12.1,33.2-18.4,40.4c-4.8,5.4-10.3,9.4-14.4,10.2
		c-3.6,0.8-8.5-3.5-12-10.4c-4.3-8.6-7.1-22.2-9.2-44.5c-3.3-35.3-3.4-43.5-1-51c2.1-6.7,5.9-27,8.4-45.6c1.1-8.4,2.5-18,3-21.3
		c1.5-9.1,2.1-13.9,2-15.4c-0.1-1.2,2.4-5.9,9.7-18.9c1.1-1.9,2-4.5,2-5.7c-0.1-2.4-4.9-7.4-7.3-7.3c-1.6-0.1-1.6-2.4-0.2-10.4
		c1-5.9,0.6-16.5-0.9-19.5c-2.7-6-13.2-11.3-16.6-8.5c-0.9,0.7-1.9,1.1-2.2,0.8c-0.8-0.6-6.3,3.6-9.9,7.6
		c-1.7,1.9-7.2,9.7-12.4,17.6c-5.2,7.7-12.4,18.5-15.9,23.7c-25,37.3-30.4,46.2-37,61.6c-17.3,39.9-30.8,76.8-34.6,95.1
		c-0.3,1.8-1.6,6.8-2.6,11.2c-3.4,13.7-6.7,37-6.6,46.1c0.5,29.5,1.7,45.3,4,49.9c3,6.2,9.8,8.6,16.3,5.5c11.3-5.1,30-29,40.9-52
		c1.9-3.8,5.8-14,8.8-22.4c7.6-21.6,11.4-31.6,15.9-41.7c2.2-4.8,5.1-11.6,6.7-15c1.5-3.4,3.2-7,3.7-8.2c1.9-3.7,9.4-27.2,10.9-33.9
		c3.8-16.6,8.6-34,9.5-34.1c0.6-0.1-2.4,45.7-4.2,56.7c-1.5,8.9-3.5,8.7-1.4,8.1c1.6-0.4,1.8,0.1,1.6,3.8
		c-0.3,4.5-0.1,17.7,0.3,24.8c1,18.8,7.2,43.2,13.7,53.7c7.1,11.5,16.5,12.2,27.4,1.9c4.9-4.7,17.1-21.7,21.6-30.1
		c12.5-23.4,16.9-35.9,22.8-63.4c3.4-16,7.4-31.6,10.8-42.4c1.2-4,4.7-14.8,7.6-24.3c3-9.5,7.2-22.6,9.2-29.3
		c6-19.2,18.5-44,22.4-44.6c0.4-0.1,2.1,3.6,3.7,8.1c4.8,13.3,7.5,32.8,8.6,61c0.8,20.5,9.2,57.8,16.8,73.9
		c8.7,18.3,20.7,29.3,33.3,30.5c14.3,1.2,33.3-12.9,53.8-40c11.1-14.7,15-20.7,22-34.3c2.3-4.5,4.7-9.1,5.3-10.4s2.2-4,3.4-6.2
		c1.2-2.2,4.3-9.1,7-15.3c4.4-10.2,5.8-12.7,15.5-25.9c5.9-7.9,11.8-16.2,13-18.4c1.3-2.1,3.6-6,5.2-8.6c1.5-2.6,6.6-12,11.1-21
		c8.3-16.2,18.6-31.7,20.2-30.5c0.4,0.3,2.7,4.5,5.2,9.3c18.5,37.2,47.3,56.6,82.1,55.4c10.5-0.3,25.3-3,38.9-7.1
		c17.7-5.3,21.8-6.9,65.3-26.9c2.9-1.4,12.5-5.9,21.4-10.3c8.9-4.3,16.7-8.1,17.4-8.3c0.7-0.2,10.3-4.7,21.6-9.9
		c34.4-16.1,45.1-20.4,65.3-27.1c14.3-4.6,46.5-16.8,47.2-17.8c0.2-0.3,6.4-2.9,13.6-5.7c7.3-2.9,13.3-4.5,14.4-4.8
		C1454.7,668,1356.7,686.7,1354.4,687.2z M942.6,713.1c-1.9,8.9-3.2,14.1-5.6,20.8c-1.3,3.8-5.5,15.8-9.2,26.8
		c-3.8,10.9-7.8,22.7-9.1,26.3c-3.1,8.9-10.6,25.7-18,40.5c-5.9,11.6-6.6,12.8-12,17.9c-3.1,3-6.8,6.2-8.2,7
		c-2.1,1.3-2.7,1.3-3.4-0.4c-4.2-8.9,4.2-46.7,17.6-79.1c8-19.3,13.6-29.2,26.4-46.4c9.7-13,12.6-16.4,17.2-20l5.6-4.3l-0.1,3.4
		C943.6,707.2,943.1,710.7,942.6,713.1z M952.4,734c-0.5,3.1-2,8.9-3.4,13.1c-4,12.1-25.5,54.1-32.4,63.1l-3.3,4.4l3.4-8.7
		c4.1-10.3,17-38.6,18.9-41.2c0.7-1,4.4-8.9,8.2-17.6c6.5-15.1,11.3-25.1,10.1-20.8C953.5,727.5,952.8,730.9,952.4,734z
		 M624.8,782.2c3.2,6.5,3.8,12.2,1.7,17.6c-1,2.5-2.4,7.6-3.1,11.2c-4.2,21.6-15.8,58.4-26.6,84.4c-6.1,14.7-12.9,35.9-17.2,53.3
		c-4.3,17.7-12.1,36.6-20.8,50.6c-2.1,3.5-9.3,15.9-15.8,27.5c-17,30.1-27.4,42.6-32.4,38.8c-4.5-3.3-6.9-13.8-6.2-26.3
		c1.2-19.7,6.3-50.4,11.5-69.5c9.4-34.3,23.3-70.9,43.5-114.7c2.5-5.4,5.9-13.2,7.7-17.3c7.2-16.4,11.4-23.3,22.9-38.4
		c6.2-8.1,12.3-15.3,13.6-16.1c1.3-0.8,3.8-2.5,5.6-3.9c1.8-1.4,4.9-3.2,6.8-4C620.2,773.8,620.8,774.2,624.8,782.2z"/>
	<path class="st0" d="M510.9,379.3c-12.2-5-25.6-6.6-44.5-5.4c-12.8,0.7-45.8,6-55.9,8.8c-6.3,1.8-31.5,10.5-37.7,13
		c-1.1,0.5-6.5,2.7-11.9,4.9c-9.4,3.8-25.3,11-39.1,17.6c-3.7,1.8-10.4,5.4-15,8.1c-4.6,2.7-9.6,5.5-11,6.2
		c-5.9,2.9-16.9,10.1-45.6,30.2c-16,11.1-22.8,16.7-65.6,54.7c-14.3,12.8-38.1,35.9-45.8,44.4c-2.2,2.5-8.5,9.5-14.1,15.7
		c-16.6,18.3-20.2,22.8-26.8,33.5c-13.4,21.7-19,41-20.5,70.6c-1.2,23.8,0.5,34.5,8,50.1c3.2,6.7,10.3,17.6,14.3,21.8
		c8.3,8.8,13.2,12.8,25.3,21.3c26.4,18.5,43.9,23.8,115,34.6c76.7,11.9,116.9,23.3,153.8,43.7c14.1,7.9,36.6,25.6,45.9,36.2
		c18.6,21.3,25.9,41.7,24.6,67.8c-0.5,9.7-3.2,26.9-4.9,31.6c-0.5,1.4-0.9,3.1-0.9,3.7c0,0.8-1.9,7.4-4.4,14.9
		c-5.2,15.7-13.4,33.9-30.1,64.5c-6.1,11.2-10.5,17.8-23.8,35.9c-9.8,13.2-19.3,24.1-23.6,28.8c-12.8,13.4-26.4,26.7-33,32.2
		c-12.9,10.7-81.9,57.4-90.1,61c-1.1,0.4-6,3.4-11.1,6.5c-20,12.3-55.8,31.4-88.5,47c-31.5,15.1-33.1,16.1-29.5,19.6
		c1.9,1.8,2.9,1.5,21.9-7.2c17.7-8.1,55.3-27.5,76.2-39.3c4.9-2.8,10.4-5.9,12.1-6.9c10-5.6,55.2-34.1,76.9-48.5
		c40.9-31.8,7.3-2.3,66.2-52c17.6-20.1,15.7-16.8,17.6-19.1c16.8-18.6,42.9-58.4,53.2-83c5.9-14.1,16.4-47.1,18.6-57.8
		c6.4-32.1,3.6-61.2-8.4-87.5c-7-15.2-19-28.9-33.4-38.4c-12.6-8.2-39.6-22-57.6-29.5c-26.6-10.9-69.6-21.7-122.6-30.4
		c-57.3-9.6-71.4-12.6-88.6-19c-19.7-7.3-37.2-20-47.8-34.8c-20.9-28.9-29.1-62-22.3-89.4c2.8-11.7,11.8-31.3,21.2-46.5
		c15.6-25.2,21.5-33.7,30.6-44c15.4-17.5,42.8-43.8,61.6-59.4c9.2-7.5,53.4-39,68.7-48.9c29.4-19.1,76.2-43.2,104.2-53.8
		c2.2-0.7,7.6-2.9,12.2-4.7c10.8-4.2,27.5-10.1,44.8-15.9c19.6-6.6,42.4-9.8,56.9-7.8c16.7,2.3,21.5,4,31.5,11.3
		c7.9,5.8,8.6,6.5,11,11.8c3,6.6,4.2,17.5,2.8,26.2c-0.8,5.8-4.1,18.5-5.6,22.1c-0.3,0.8-2.2,5.6-4.2,10.6
		c-7.2,18.4-19.4,43.5-29.3,60.4c-5.7,9.7-12.1,19.3-24.6,36.7c-4.3,6-9.8,14-12.1,17.8c-2.2,3.8-7.2,11.6-11,17.4
		c-3.9,5.7-8.3,12.5-9.9,15c-1.5,2.6-5,7.9-7.5,11.8c-2.6,3.9-7.5,12-10.9,18c-5.5,9.6-12.5,20.4-35,53.8
		c-12.2,18.3-15.6,23.5-21.4,34c-8.8,15.6-9.5,17-14.2,27.3c-6.5,14.3-7.2,16.6-6.9,21.9c0.2,2.9,0.4,5.9,0.3,6.6
		c-0.1,0.7,2.3,3.2,5.3,5.7c5.3,4.4,5.5,4.5,10.1,3.8c5.6-0.8,9.4-4,11.9-9.8c1.7-4.1,1.5-5.1-2.1-14.1c-1-2.6,0.2-15.8,1.7-16.8
		c0.3-0.3,1.8-3.6,3.2-7.3c2.9-8.2,6.1-15.5,8.1-19.1c2-3.6,7.8-14.7,8.9-17c1.2-2.6,6.8-12.8,12-22.2c7.8-13.7,14.2-23.5,27.3-41.4
		c7-9.5,13.5-18.8,14.4-20.4c1-1.6,4.2-6.6,7-11c2.9-4.4,7.5-11.8,10.4-16.5c2.8-4.8,8.1-13.4,11.7-19.3c3.6-6,9.2-16.1,12.4-22.6
		c3.3-6.6,8-15.8,10.6-20.8c5.1-9.7,16.4-30.8,19.6-36.5c14.7-26.8,25.2-54,26.6-69C541.1,403.5,532.1,387.7,510.9,379.3z"/>
</g>
<text transform="matrix(1 0 0 1 689.9974 1132.0028)" class="st1 st2 st3">SOUEIDAN</text>
</svg>
