<?xml version="1.0" encoding="utf-8"?>
<!-- Generator: Adobe Illustrator 19.2.0, SVG Export Plug-In . SVG Version: 6.00 Build 0)  -->
<svg version="1.1" id="Layer_1" xmlns="http://www.w3.org/2000/svg" xmlns:xlink="http://www.w3.org/1999/xlink" x="0px" y="0px"
	 width="2519px" height="2048px" viewBox="0 0 2519 2048" style="enable-background:new 0 0 2519 2048;" xml:space="preserve">
<style type="text/css">
	.st0{stroke:#000000;stroke-width:5;stroke-miterlimit:10;}
	.st1{font-family:'BrandonGrotesque-Black';}
	.st2{font-size:380px;}
	.st3{letter-spacing:-31;}
</style>
<g transform="translate(0.000000,2048.000000) scale(0.100000,-0.100000)">
	<path class="st0" d="M16224.6,13419.1c-16.8-2.7-67-13.8-112.9-26c-45.2-11.4-94.6-23.1-108-24.9c-14.7-1.9-28.6-5.8-30.6-8.1
		c-2.6-3-33.8-11.9-70.8-19.8c-36.2-8.5-124.2-34.7-194.7-58.7c-127.1-42.7-191.5-71.9-429.2-196.4c-29.4-14.4-75.1-37.2-102.4-50.7
		c-46.5-22.1-262.3-127.2-304.7-147.5c-62.1-31.2-194.9-119-285.7-190c-99-75.9-331.9-233.4-606-409.7
		c-65.5-41.4-145.8-93.8-178.7-117c-73.3-50.5-186.5-126.1-341.6-227.8c-64.8-42-150.3-99.1-190.7-126.5
		c-107.8-72.4-422.3-256.1-783.2-455.6c-76.8-42.3-157.6-87.7-178.5-101.4c-54.2-32.7-225.1-105.1-306.9-128.6
		c-92.9-27.2-332.7-44.8-434.4-31.5c-174.1,22.4-242.3,50.3-359.5,150.3c-85.2,72.7-127.6,124.7-225.8,280.8
		c-83.4,130.3-109.3,198.5-122.7,313.7c-4.8,51.4-14.5,103.1-19.7,114.1c-9.1,17-69.9,58.3-82.3,54.5
		c-57.3-19.4-76.4-38.7-117.4-120.7c-1.2-2.9-8.4-28.3-16.7-58.1c-37.9-130.7-121-362.1-175.8-484.9c-33.2-72.9-40.8-84.8-43.6-68
		c-10.4,60.2-66.4,122.4-123.5,135.6c-65.8,15.4-186.9-21.9-288-89.5c-65.4-42.8-202.8-152.9-266.9-212.6
		c-23.7-23.2-50.2-46.5-58.2-52.8c-39.3-32.2-155.1-155.6-244.7-260.5c-221.2-260.8-372.1-594.8-397.2-878.4
		c-14.9-170,28.1-301.4,112.1-341.5c33.9-15.8,34.7-17.8,19.8-35.3c-20.1-23.6-161.3-130.5-208.8-158.4
		c-96.3-55.9-191.5-53.5-275.7,6.6c-157.7,110.9-235.8,326.1-292.8,804.6c-7.4,66.8-24.4,182.5-36.7,257.4
		c-13,74.2-26.8,185.9-33.1,247.8s-13.8,120.9-17.3,129.1c-12.9,37.3-58.4,74.8-101.1,84.9c-23.9,5.9-46.5,13.3-51,17.2
		c-3.8,3.2-24.7-1.2-45.2-11.4c-29.4-14.4-41.9-26-61.1-60.9c-13.7-23.8-25.6-53.1-24.7-64.4c-0.5-11.4-5.2-41.6-11-66.8
		c-6.5-26-8.9-48.9-5.1-52.2c3.8-3.2,3.2-13.2-0.4-22c-7.8-18.3-19.8-81.7-17.4-94.3c0.3-4.2-11.5-61.2-28.2-127.1
		c-16.1-65.1-41.8-179.9-55.7-254.8c-21.6-113.1-117.2-499.4-126.3-510.1c-1.3-1.5-10.9-32.8-20.7-70.4
		c-58.5-210.3-173-467.6-279.6-626.5c-31-47.1-253.7-308.1-297.8-350.6C7092,8554,7001.9,8499.4,6960,8501
		c-53.3,0.8-103.6,63.4-156.5,194c-37.8,92.8-53.3,162.5-71.5,321.3c-25.2,220-22.8,296.8,17,466.7
		c39.9,168.4,51.2,240.3,55.1,343.4c2,37.8,8.8,76.6,15.2,85.6c39.8,52.8,44.1,60.9,34.2,69.4c-5.3,4.5-6.3,17.2-1.5,27.5
		c11.6,24.3-12.5,68.5-42.3,76.8c-44.9,12-58.5,22.3-65.5,48c-11.6,38.8-77.3,125.1-131.3,171.2c-136.2,116.2-325.6,89.9-559.2-77.6
		c-140.9-101.9-185.1-144.4-320.3-309.1c-115.1-141-133.7-165.9-189.3-252.6c-37.8-59.7-119.7-208.1-129.5-236.5
		c-5.3-13.9-10.8-25-13.1-23c-3.8,3.2-17.6-28.3-78.7-189.2c-191.6-500.3-245.5-725.2-233.2-969.7
		c10.2-209.9,96.2-471.2,178.3-541.3c92.8-79.2,246.4-11.7,457.9,200.8c180,181.6,386.6,547,618.3,1095.9
		c133.9,315.6,212.2,492,246.6,558.6c12.4,22.3,25.9,48.9,30.8,59.2c8,15.5,8.9,13.5,8.9-14.2c0-18.4,1.9-77.9,2.7-132.4
		c1.5-55.2,1.7-110.5,0.6-124.1c-2.9-35.7,16.8-89.8,3.8-169.6c26-189.8,15.7-80.5,35.8-83.2c7.2-0.9-29.6,2.3-20.1,7.3
		c14.3,7.5-0.8-9.8,10.3-113.9c26.6-246.2,85.9-449.3,150.2-517.3c156.4-166.4,433.5-18.9,648,344.9
		c58.1,98.9,191.7,374.1,243.3,502.3c57.6,141.5,104.3,287,160.5,499.3c69.3,263,198.1,643.4,247.9,731.1
		c23.1,39.4,43.9,73,46.7,73.2c7,0.6,40-57.8,51.9-91.6c35.2-103.6,46.7-142.4,57-192c6-31.4,11.6-66.5,11.9-78.5
		c0.2-12,8.8-48.2,17-80.2c9.6-31.9,16.2-61.1,15.9-66.1c-0.7-36.2,115.6-493,128.6-504.1c2.3-1.9,10.2-21.9,17.8-45.4
		c21.7-68.5,85.3-172.7,131.2-214.5c84.1-77,166.4-103.9,264.3-86.2c111.1,20.9,219.9,89.7,418.6,267.2
		c60.3,53.7,138.8,119.5,174.2,147.1c48.1,37.9,107.6,101.4,240.1,255.2c195,225.4,299,362.7,402.8,530.5
		c7.6,11.9,32.8,52.2,56.7,89.6c131.8,208.3,261,439.9,322.3,579.5c43.8,100.6,101,238.5,107.6,263.2
		c7.9,26.2,85.2,204.6,102.7,234.4c7.6,11.9,25.8,50.3,43,84.3c16.4,34.6,34,63,38.9,64.1c12,0.2,31.4-55.7,51.3-146.3
		c42.4-195.3,99.9-294.3,242.8-414.9c250.9-212.8,487-265.8,805.9-180.2c468.2,125,780.9,269.6,1181.9,543.9
		c45.7,32,164.8,113.1,264.6,179.1c99.6,67.5,204,137.4,232.3,156.7c28.3,19.3,75.5,50,104.5,68.6c29,18.6,91,60.4,137.3,93.1
		c115.7,80.1,244.1,169,258.8,180.1c40.8,30.9,264.1,184.8,340.3,235.5c89.7,58.9,142.5,90,331.3,197.2
		c50.9,28.9,142.3,83.6,203.9,121.8c61.5,38.2,141.4,87.1,178,108.4c73.1,44.1,286.1,148.9,314.8,154.7c9.8,2.2,44.2,14.8,75.9,27.3
		c147.1,59.9,533.5,195.4,631.4,222.3c150,40.2,154.8,42.7,154.6,62.6C16273.2,13414.4,16258.3,13423.2,16224.6,13419.1
		C16207.8,13416.4,16258.3,13423.2,16224.6,13419.1z M10253.4,11225.1c5-72.7-8-158.8-35-230.5c-26.4-69.5-127.4-272.5-163.5-327.2
		c-13.9-21-28.4-44.1-32.1-51.5c-57.2-119.4-557.1-766.9-708.4-916.5c-85.5-84.8-152.9-75.9-195.7,26.4
		c-68.1,162-20.1,469.4,104.3,672.2c33.9,55.2,461,547.9,481,554.4c3.5,1,32.6,27.4,64.2,58.3c121.8,119.6,280.8,233.6,373.4,265
		C10234.8,11308,10247.3,11302.6,10253.4,11225.1C10258.4,11152.4,10247.3,11302.6,10253.4,11225.1z M6624.5,10141.4
		c31.7-50.7,34.2-83.1,10.2-146.7c-8.3-20.5-11.7-39.9-8.7-42.5c3-2.6,2.8-9-1.1-13.6c-3.9-4.6-23.6-69.3-44-142.5
		c-37.4-136.3-74-239.2-149.2-427.5c-176.1-437.4-363.3-849.4-454.3-999.2c-8.1-14.1-29.4-49.8-47-78.2
		c-51.3-86.3-274.6-357.2-346.8-421.8c-116.6-104.3-206-148.9-252.6-125c-78.3,39.2-142.7,216.4-144.2,396.5
		c-0.7,90,8.1,229.7,19,298c83.2,499.6,147.4,682.7,388.3,1099c207.7,360.5,505.8,671.3,713.5,745.2
		C6431.8,10326.9,6537.6,10279.9,6624.5,10141.4z"/>
	<path class="st0" d="M5810.1,14355.5c-118.8,58-251.3,83-440,83.6c-127.8,1.2-460.9-28.7-563.5-50.3
		c-64.2-13.6-321.1-83.6-384.7-104.2c-11.7-4.5-66.3-22.3-121.6-40.8c-96.8-31.8-260.1-92.2-402.4-149.6
		c-37.8-15.1-107-46.8-155.4-71.2c-47.8-23.6-99-48.3-113.4-54.4c-61.1-25.4-175.2-89.8-475.8-271
		c-166.6-99.7-238.4-151.5-690.9-501.5c-151.7-117.7-404.3-332-487.3-412.4c-23.7-23.2-91.6-88.8-151.5-146.8
		c-177.9-171.5-216.5-213.6-289.9-316.6c-148.1-207.5-216.9-395.9-252.5-690.3c-28.1-236.3-18.1-344.7,46.3-504.9
		c27.5-69.5,91.1-182.9,127.9-227.5c76.9-93.2,122.9-136.4,238-229.4c250.8-202.2,421.9-266.7,1124.4-423.2
		c757.6-170.6,1150.3-311.2,1504.6-539.9c135.3-87.9,347.7-279.6,433.2-392c171-224.8,230.8-433.6,200.2-692.8
		c-11.5-96.7-49.9-266.4-70.4-312c-6-13.2-11.1-30-11.3-36.4c-0.1-7.8-24-72.8-53.7-146.1c-62.4-153.2-155.6-319.4-343-613
		c-68.1-107.5-117-171-261.6-342c-107.1-125.5-209.6-237.9-255.8-281.3c-136.9-125-281.8-248.6-350.9-298.7
		c-136.2-98-855.6-517.4-939.7-548.2c-11.1-3.7-62.2-29.7-114.6-57.3c-207.7-109.4-578.3-275.6-914.6-409.3
		c-324.6-129.2-341.6-138.4-307.4-175.4c17.8-19.2,27.6-17,223.2,56.7c182.5,69.1,570.7,237.4,786.6,341
		c51.2,24.6,107.3,51.8,125,60.3c103.9,49.4,574,302.9,800,432.1c403.1,230.5,642.6,395.6,801.1,552.1c23.7,23.2,61.3,59.5,82.3,81
		c180.5,174.6,468.8,574.1,588.3,812.6c67.9,136.6,195.6,458.8,224.2,564.6c85.6,316,77.4,608.3-24.8,878.3
		c-59.9,156.3-170,301.5-307.3,405.5c-119.9,90.5-380.5,245.8-554.8,332.7c-258.3,127.1-679.8,263.3-1202.3,385.8
		c-565.3,134-703.9,173.4-870.9,248.9c-192,86.2-357.6,224.9-453.5,379.1c-188.5,302.9-248.4,637.9-161.9,907.2
		c36.3,114.9,139,304.7,243.2,449.8c172.5,240.6,237.7,321.7,335,418.8c165.1,164.1,456.4,408.5,654.4,551.1
		c96.7,68.7,559.3,353.5,718.4,441.3c305.7,170.3,789.2,379.5,1076,466c22.2,6,78.3,23.9,124.7,38.2
		c110.8,34.3,281.5,81.9,458,128.5c200.1,52.7,430,69.5,572.8,39.7c165.2-34.5,212.2-54.9,306.4-133.9
		c75.2-62.9,81.5-70.9,102.1-125.3c25.2-67.5,30.3-177.1,10.2-263.8c-11.8-57-53-182.2-70.8-217c-3.7-7.4-25.5-54.5-48.6-103.1
		c-84.4-179-222.7-421.2-332.7-582.4c-63.6-93-133.7-184.4-270.3-349.1c-47.3-56.9-107.2-133.3-132.7-169.4
		c-24.8-36.7-79.9-110.6-121.7-165.7c-42.5-54.4-91.3-119.3-109.2-143.4c-17.2-24.8-55-75.3-83.3-113
		c-29-37.1-83.2-114.4-121.1-172.7c-61.5-92.1-138.5-194.7-385-512.8c-134.4-174.5-171-223.5-236.7-325.2
		c-98.8-149.7-106.3-163-160.1-263.1c-74.9-138.6-83.1-160.5-83.8-213.8c0.2-29.1-0.3-58.9-1.2-66.1c-1.6-6.5,21.1-33.8,49.5-60.6
		c49.9-47.8,52.1-48.4,98.6-44.7c56.4,4.5,96.7,33.2,124.9,89.3c19.5,39.8,18.8,49.7-11.9,141.6c-8.5,27,13.1,157.1,27.9,166.8
		c3.4,2.4,20.6,35,36.9,71c34.9,79.4,71,151,93.2,184.7c22,35.1,88.1,141.7,99.9,163.2c13.6,25.2,76.1,123.1,134.9,213.5
		c86.8,131,157.4,224.5,300,394.7c75.8,90.4,146.9,178.3,157.7,194.1c64.9,87.1,129.1,174.7,192.7,262.8
		c31.1,45.7,89.9,128.4,130.1,184.8c39.5,57,102.7,154.2,138.9,216.7c36.8,63.2,90.8,152.6,119.6,200.3
		c57.2,93.2,184.4,296.2,219.7,351.5c164.7,257.8,287.8,522.1,311.6,670.1C6094.7,14092.9,6015.1,14256.9,5810.1,14355.5
		C5691.3,14413.5,6015.1,14256.9,5810.1,14355.5z"/>
</g>
<text transform="matrix(1 0 0 1 683.5698 1355.0283)" class="st1 st2 st3">SOUEIDAN</text>
</svg>
