<svg x="100" y="100" width="200" height="250" viewBox="0 0 200 250" enable-background="new 0 0 200 250" xml:space="preserve">
  <path fill="#465971" d="M163.24 96.24c-6.05-15.29-9.97-45.68-9.97-45.68l-0.08 0.13C150.75 22.3 126.97 0 97.94 0 68.95 0 45.19 22.25 42.71 50.6l-0.03-0.04c0 0 0 0.16 0 0.42 -0.12 1.49-0.23 2.98-0.23 4.5 0 0.47-3.54 23.81-9.74 40.76 -11 30.04-18.58 60.36-16.52 83.66 4.02 45.41 38.15 69.88 81.75 69.88 43.63 0 77.91-26.12 81.75-69.99C181.94 154.11 173.49 122.19 163.24 96.24z"/>
  <path fill="#CCCECF" d="M52.89 55.17h-4.02c0 0-1.3 24.96-5.62 37.91 -4.32 12.95-15.22 43.63-15.22 78.72 0 38.66 31.31 68.08 69.93 68.08V55.17H52.89z"/>
  <path fill="#F5F0F2" d="M167.89 171.8c0-34.26-12.57-65.77-16.88-78.72 -4.31-12.95-3.95-37.91-3.95-37.91h-4.02H97.96v184.71C136.58 239.88 167.89 210.46 167.89 171.8z"/>
  <ellipse fill="#F39E2B" cx="97.96" cy="70.08" rx="49.94" ry="43.99"/>
  <ellipse fill="#465971" cx="97.96" cy="60.06" rx="49.94" ry="43.99"/>
  <path fill="#465971" d="M33.1 109.68c-9.77 10.76-38.2 45.37-32.3 76.93 4.95 26.52 15.46 16.61 15.56 10.6 0.2-12.02 8.96-17.35 8.96-17.35L33.1 109.68zM162.82 109.68c9.77 10.76 38.19 45.37 32.31 76.93 -4.95 26.52-15.46 16.61-15.56 10.6 -0.19-12.02-8.96-17.35-8.96-17.35L162.82 109.68z"/>
  <path fill="#868686" d="M93.58 59.66l-5.98 3.95c-2.41 1.59-3.17 4.91-1.69 7.39l9.36 15.72c0.74 1.24 1.71 1.86 2.68 1.86V58.47C96.37 58.47 94.79 58.87 93.58 59.66z"/>
  <path fill="#CCCECF" d="M100.64 86.72l9.36-15.72c1.47-2.48 0.71-5.8-1.69-7.39l-5.98-3.95c-1.21-0.79-2.79-1.19-4.38-1.19V88.58C98.93 88.58 99.9 87.96 100.64 86.72z"/>
  <circle fill="#FBDD58" cx="125.23" cy="44.63" r="12.95"/>
  <path fill="#FBDD58" d="M83.64 44.63c0 7.15-5.8 12.96-12.95 12.96 -7.16 0-12.96-5.8-12.96-12.96 0-7.15 5.8-12.95 12.96-12.95C77.84 31.68 83.64 37.47 83.64 44.63z"/>
  <path fill="#3C3C3B" d="M78.57 44.63c0 4.35-3.53 7.89-7.88 7.89 -4.36 0-7.89-3.53-7.89-7.89 0-4.35 3.54-7.88 7.89-7.88C75.05 36.75 78.57 40.28 78.57 44.63z"/>
  <path fill="#3C3C3B" d="M133.11 44.63c0 4.35-3.53 7.89-7.88 7.89 -4.35 0-7.89-3.53-7.89-7.89 0-4.35 3.53-7.88 7.89-7.88C129.58 36.75 133.11 40.28 133.11 44.63z"/>
  <path fill="#FFFFFF" d="M75.72 41.4c0 1.78-1.44 3.23-3.23 3.23 -1.78 0-3.22-1.44-3.22-3.22 0-1.78 1.44-3.23 3.22-3.23C74.28 38.17 75.72 39.62 75.72 41.4z"/>
  <circle fill="#FFFFFF" cx="127.07" cy="41.4" r="3.23"/>
  <path fill="#3C3C3B" d="M86.37 249.78c0-12.6-10.21-22.81-22.81-22.81 -12.59 0-22.81 10.21-22.81 22.81H86.37z"/>
  <path fill="#575756" d="M155.16 249.78c0-12.6-10.21-22.81-22.81-22.81 -12.6 0-22.81 10.21-22.81 22.81H155.16z"/>
</svg>
