<?xml version="1.0" encoding="UTF-8" standalone="no"?>
<svg xmlns="http://www.w3.org/2000/svg" xmlns:xlink="http://www.w3.org/1999/xlink" width="1700" height="1700" viewBox="0 0 1700 1750">
	<defs>
    <filter id="f1" x="0" y="0">
      <feGaussianBlur in="SourceGraphic" stdDeviation="1" />
    </filter>
  </defs><g id="background" filter="url(#f1)"><!-- <linearGradient id="a" gradientUnits="userSpaceOnUse" x1="249.713" y1="-149.043" x2="1453.287" y2="1854.042"><stop offset="0" stop-color="#fff"/><stop offset="1" stop-color="#ccc"/></linearGradient> --><!-- <path fill="url(#a)" d="M0 1h1703v1703h-1703z"/> --><defs><path id="b" d="M2.002-.001h1697v1703h-1697z"/></defs><clipPath id="c"><use xlink:href="#b" overflow="visible"/></clipPath><g clip-path="url(#c)"><g stroke="#ddd" stroke-miterlimit="10" fill="none"><ellipse stroke-width="7" cx="493.055" cy="1336.752" rx="428.652" ry="430.167"/><ellipse stroke-width="7" cx="440.377" cy="1336.752" rx="428.652" ry="430.167"/><ellipse stroke-width="4" cx="428.577" cy="1336.752" rx="428.652" ry="430.167"/><ellipse stroke-width="4" cx="375.898" cy="1336.752" rx="428.651" ry="430.167"/></g><g stroke="#ddd" stroke-miterlimit="10" fill="none"><ellipse stroke-width="7" cx="246.316" cy="1280.334" rx="418.933" ry="420.415"/><ellipse stroke-width="4" cx="308.023" cy="1315.022" rx="398.472" ry="399.881"/><ellipse stroke-width="7" cx="327.024" cy="1334.09" rx="379.471" ry="380.813"/></g><defs><ellipse id="d" cx="386.616" cy="1305.561" rx="387.894" ry="389.266"/></defs><clipPath id="e"><use xlink:href="#d" overflow="visible"/></clipPath><g clip-path="url(#e)"></g></g><g clip-path="url(#c)"><g stroke="#ddd" stroke-miterlimit="10" fill="none"><ellipse stroke-width="7" cx="978.53" cy="914.751" rx="227.302" ry="228.104"/><ellipse stroke-width="7" cx="950.596" cy="914.751" rx="227.302" ry="228.104"/><ellipse stroke-width="4" cx="944.338" cy="914.751" rx="227.302" ry="228.104"/><ellipse stroke-width="4" cx="916.404" cy="914.751" rx="227.302" ry="228.104"/></g><g stroke="#ddd" stroke-miterlimit="10" fill="none"><ellipse stroke-width="7" cx="847.69" cy="884.834" rx="222.148" ry="222.934"/><ellipse stroke-width="4" cx="880.412" cy="903.228" rx="211.298" ry="212.046"/><ellipse stroke-width="7" cx="890.487" cy="913.339" rx="201.223" ry="201.935"/></g><defs><ellipse id="f" cx="922.087" cy="898.211" rx="205.69" ry="206.416"/></defs><clipPath id="g"><use xlink:href="#f" overflow="visible"/></clipPath><g clip-path="url(#g)"></g></g><g clip-path="url(#c)"><g stroke="#ddd" stroke-miterlimit="10" fill="none"><ellipse stroke-width="7" cx="614.568" cy="123.301" rx="349.095" ry="350.328"/><ellipse stroke-width="7" cx="571.668" cy="123.301" rx="349.096" ry="350.328"/><ellipse stroke-width="4" cx="562.056" cy="123.301" rx="349.095" ry="350.328"/><ellipse stroke-width="4" cx="519.155" cy="123.301" rx="349.095" ry="350.328"/></g><g stroke="#ddd" stroke-miterlimit="10" fill="none"><ellipse stroke-width="7" cx="413.623" cy="77.354" rx="341.18" ry="342.386"/><ellipse stroke-width="4" cx="463.877" cy="105.604" rx="324.517" ry="325.665"/><ellipse stroke-width="7" cx="479.351" cy="121.132" rx="309.043" ry="310.136"/></g><defs><ellipse id="h" cx="527.884" cy="97.899" rx="315.903" ry="317.018"/></defs><clipPath id="i"><use xlink:href="#h" overflow="visible"/></clipPath><g clip-path="url(#i)"></g></g><g clip-path="url(#c)"><g stroke="#ddd" stroke-miterlimit="10" fill="none"><ellipse stroke-width="7" cx="1090.351" cy="1414.565" rx="142.225" ry="142.727"/><ellipse stroke-width="7" cx="1072.873" cy="1414.565" rx="142.225" ry="142.727"/><ellipse stroke-width="4" cx="1068.957" cy="1414.565" rx="142.225" ry="142.727"/><ellipse stroke-width="4" cx="1051.478" cy="1414.565" rx="142.225" ry="142.727"/></g><g stroke="#ddd" stroke-miterlimit="10" fill="none"><ellipse stroke-width="7" cx="1008.483" cy="1395.846" rx="139" ry="139.492"/><ellipse stroke-width="4" cx="1028.958" cy="1407.355" rx="132.211" ry="132.678"/><ellipse stroke-width="7" cx="1035.262" cy="1413.682" rx="125.907" ry="126.352"/></g><ellipse fill="#fff" cx="1057.959" cy="1404.021" rx="105.887" ry="106.261"/><defs><ellipse id="j" cx="1055.035" cy="1404.217" rx="128.701" ry="129.155"/></defs><clipPath id="k"><use xlink:href="#j" overflow="visible"/></clipPath><g clip-path="url(#k)"></g></g><g clip-path="url(#c)"><g stroke="#ddd" stroke-miterlimit="10" fill="none"><ellipse stroke-width="7" cx="712.205" cy="548.474" rx="167.748" ry="168.34"/><ellipse stroke-width="7" cx="691.589" cy="548.474" rx="167.747" ry="168.34"/><ellipse stroke-width="4" cx="686.971" cy="548.474" rx="167.748" ry="168.34"/><ellipse stroke-width="4" cx="666.356" cy="548.474" rx="167.748" ry="168.34"/></g><g stroke="#ddd" stroke-miterlimit="10" fill="none"><ellipse stroke-width="7" cx="615.645" cy="526.395" rx="163.945" ry="164.524"/><ellipse stroke-width="4" cx="639.794" cy="539.969" rx="155.938" ry="156.489"/><ellipse stroke-width="7" cx="647.23" cy="547.432" rx="148.502" ry="149.026"/></g><defs><ellipse id="l" cx="670.55" cy="536.267" rx="151.798" ry="152.333"/></defs><clipPath id="m"><use xlink:href="#l" overflow="visible"/></clipPath><g clip-path="url(#m)"></g></g><g clip-path="url(#c)"><g stroke="#ddd" stroke-miterlimit="10" fill="none"><ellipse stroke-width="7" cx="349.63" cy="543.976" rx="197.817" ry="198.514"/><ellipse stroke-width="7" cx="325.319" cy="543.976" rx="197.816" ry="198.514"/><ellipse stroke-width="4" cx="319.874" cy="543.976" rx="197.817" ry="198.514"/><ellipse stroke-width="4" cx="295.563" cy="543.976" rx="197.816" ry="198.514"/></g><g stroke="#ddd" stroke-miterlimit="10" fill="none"><ellipse stroke-width="7" cx="235.762" cy="517.939" rx="193.331" ry="194.014"/><ellipse stroke-width="4" cx="264.24" cy="533.947" rx="183.889" ry="184.538"/><ellipse stroke-width="7" cx="273.008" cy="542.747" rx="175.121" ry="175.739"/></g><defs><ellipse id="n" cx="300.509" cy="529.581" rx="179.008" ry="179.639"/></defs><clipPath id="o"><use xlink:href="#n" overflow="visible"/></clipPath><g clip-path="url(#o)"></g></g><g clip-path="url(#c)"><g stroke="#ddd" stroke-miterlimit="10" fill="none"><ellipse stroke-width="7" cx="146.677" cy="283.114" rx="142.225" ry="142.727"/><ellipse stroke-width="7" cx="129.199" cy="283.114" rx="142.225" ry="142.727"/><ellipse stroke-width="4" cx="125.283" cy="283.114" rx="142.224" ry="142.727"/><ellipse stroke-width="4" cx="107.805" cy="283.114" rx="142.225" ry="142.727"/></g><g stroke="#ddd" stroke-miterlimit="10" fill="none"><ellipse stroke-width="7" cx="64.81" cy="264.395" rx="139" ry="139.492"/><ellipse stroke-width="4" cx="85.284" cy="275.904" rx="132.211" ry="132.678"/><ellipse stroke-width="7" cx="91.588" cy="282.23" rx="125.907" ry="126.352"/></g><defs><ellipse id="p" cx="111.361" cy="272.766" rx="128.702" ry="129.155"/></defs><clipPath id="q"><use xlink:href="#p" overflow="visible"/></clipPath><g clip-path="url(#q)"></g></g>
<ellipse xmlns="http://www.w3.org/2000/svg" fill="none" stroke="#ddd" stroke-width="60" stroke-miterlimit="10" cx="528.045" cy="95.17" rx="288.1" ry="289.119"/><ellipse xmlns="http://www.w3.org/2000/svg" fill="none" stroke="#ddd" stroke-width="40" stroke-miterlimit="10" cx="111.426" cy="271.653" rx="117.375" ry="117.79"/><ellipse xmlns="http://www.w3.org/2000/svg" fill="none" stroke="#ddd" stroke-width="60" stroke-miterlimit="10" cx="670.627" cy="534.956" rx="138.438" ry="138.928"/><ellipse xmlns="http://www.w3.org/2000/svg" fill="none" stroke="#ddd" stroke-width="60" stroke-miterlimit="10" cx="300.6" cy="528.035" rx="163.253" ry="163.83"/><ellipse xmlns="http://www.w3.org/2000/svg" fill="none" stroke="#ddd" stroke-width="60" stroke-miterlimit="10" cx="922.192" cy="896.435" rx="187.586" ry="188.25"/><ellipse xmlns="http://www.w3.org/2000/svg" fill="none" stroke="#ddd" stroke-width="60" stroke-miterlimit="10" cx="386.814" cy="1302.212" rx="353.755" ry="355.006"/><ellipse xmlns="http://www.w3.org/2000/svg" fill="none" stroke="#ddd" stroke-width="40" stroke-miterlimit="10" cx="1055.1" cy="1403.104" rx="117.375" ry="117.79"/></g></svg>