<svg xmlns="http://www.w3.org/2000/svg" xmlns:xlink="http://www.w3.org/1999/xlink" viewBox="-2 -2 504 252" id="menu" style="transform-origin: 50% 50% 0px; transform: translate3d(0px, 0px, 0px); touch-action: none; -webkit-user-select: none;">
    <style>
        #menu {
            display: block;
            margin: 0 auto;
            overflow: visible;
        }

        .item .sector {
            transition: all .1s linear;
            fill: #fff;
            stroke: #111;
        }

        .item:hover .sector {
            fill: #eee;
        }

        .menu-trigger {
            fill: #EA2A55;
        }

        .menu-trigger:hover {
            cursor: pointer;
        }
    </style>
    <g id="symbolsContainer">
        <symbol class="icon icon-" id="icon-1" viewBox="0 0 35 35">
            <path d="M29.555 11.501l-14-9.333c-0.336-0.224-0.774-0.224-1.109 0l-14 9.333c-0.278 0.185-0.445 0.498-0.445 0.832v9.333c0 0.334 0.167 0.647 0.445 0.832l14 9.333c0.168 0.112 0.361 0.168 0.555 0.168s0.387-0.056 0.555-0.168l14-9.333c0.278-0.185 0.445-0.498 0.445-0.832v-9.333c0-0.334-0.167-0.647-0.445-0.832zM15 20.465l-5.197-3.465 5.197-3.465 5.197 3.465-5.197 3.465zM16 11.798v-6.93l11.197 7.465-5.197 3.465-6-4zM14 11.798l-6 4-5.197-3.465 11.197-7.465v6.93zM6.197 17l-4.197 2.798v-5.596l4.197 2.798zM8 18.202l6 4v6.93l-11.197-7.465 5.197-3.465zM16 22.202l6-4 5.197 3.465-11.197 7.465v-6.93zM23.803 17l4.197-2.798v5.596l-4.197-2.798z" fill="#444444"></path>
        </symbol>

        <symbol class="icon icon-" id="icon-2" viewBox="0 0 35 35">
            <path d="M23.927 7.073c-0.215 0.306-2.015 2.726-6.267 4.32-1.96-3.6-4.131-6.558-4.462-7 0.899-0.217 1.837-0.332 2.802-0.332 3.038 0 5.815 1.14 7.927 3.013zM16.836 16.123c-6.167 1.994-9.449 7.427-9.72 7.891-1.91-2.12-3.074-4.924-3.074-7.996 0-0.122 0.002-0.244 0.006-0.366 0.523 0.011 6.318 0.085 12.29-1.702 0.342 0.67 0.669 1.35 0.97 2.029-0.158 0.045-0.315 0.092-0.471 0.142zM16 0c-8.837 0-16 7.163-16 16s7.163 16 16 16 16-7.163 16-16-7.163-16-16-16zM16 30c-7.72 0-14-6.28-14-14s6.28-14 14-14c7.72 0 14 6.28 14 14s-6.28 14-14 14zM19.372 14.903c-0.248-0.583-0.515-1.162-0.793-1.732 4.421-1.805 6.425-4.374 6.677-4.715 1.665 2.035 2.674 4.627 2.7 7.449-0.394-0.083-4.348-0.885-8.327-0.385-0.084-0.205-0.17-0.41-0.258-0.617zM15.35 12.112c-5.594 1.485-10.52 1.464-11.055 1.457 0.775-3.711 3.276-6.795 6.622-8.373 0.315 0.432 2.452 3.394 4.434 6.916zM18.041 17.984c0.026-0.009 0.052-0.018 0.079-0.027 1.679 4.363 2.373 8.019 2.551 9.068-1.436 0.611-3.015 0.95-4.671 0.95-2.764 0-5.313-0.943-7.34-2.524 0.215-0.44 2.636-5.117 9.381-7.468zM20.358 17.405c3.747-0.6 7.040 0.382 7.449 0.511-0.533 3.327-2.443 6.201-5.126 8.015-0.123-0.727-0.759-4.228-2.323-8.526z" fill="#444444"></path>
        </symbol>

        <symbol class="icon icon-" id="icon-3" viewBox="0 0 35 35">
            <path d="M32 6.076c-1.177 0.522-2.443 0.875-3.771 1.034 1.355-0.813 2.396-2.099 2.887-3.632-1.269 0.752-2.674 1.299-4.169 1.593-1.198-1.276-2.904-2.073-4.792-2.073-3.626 0-6.565 2.939-6.565 6.565 0 0.515 0.058 1.016 0.17 1.496-5.456-0.274-10.294-2.888-13.532-6.86-0.565 0.97-0.889 2.097-0.889 3.301 0 2.278 1.159 4.287 2.921 5.465-1.076-0.034-2.088-0.329-2.974-0.821-0.001 0.027-0.001 0.055-0.001 0.083 0 3.181 2.263 5.834 5.266 6.437-0.551 0.15-1.131 0.23-1.73 0.23-0.423 0-0.834-0.041-1.235-0.118 0.835 2.608 3.26 4.506 6.133 4.559-2.247 1.761-5.078 2.81-8.154 2.81-0.53 0-1.052-0.031-1.566-0.092 2.905 1.863 6.356 2.95 10.064 2.95 12.076 0 18.679-10.004 18.679-18.68 0-0.285-0.006-0.568-0.019-0.849 1.283-0.926 2.396-2.082 3.276-3.398z" fill="#444444"></path>
        </symbol>

        <symbol class="icon icon-" id="icon-4" viewBox="0 0 35 35">
            <path d="M26.688 0h-21.375c-2.922 0-5.313 2.391-5.313 5.313v21.375c0 2.922 2.391 5.313 5.313 5.313h21.375c2.922 0 5.313-2.391 5.313-5.313v-21.375c0-2.922-2.391-5.313-5.313-5.313zM10.244 14h11.513c0.218 0.627 0.337 1.3 0.337 2 0 3.36-2.734 6.094-6.094 6.094s-6.094-2.734-6.094-6.094c0-0.7 0.119-1.373 0.338-2zM28 14.002v11.998c0 1.1-0.9 2-2 2h-20c-1.1 0-2-0.9-2-2v-12h3.128c-0.145 0.644-0.222 1.313-0.222 2 0 5.014 4.079 9.094 9.094 9.094s9.094-4.079 9.094-9.094c0-0.687-0.077-1.356-0.222-2l3.128 0.002zM28 7c0 0.55-0.45 1-1 1h-2c-0.55 0-1-0.45-1-1v-2c0-0.55 0.45-1 1-1h2c0.55 0 1 0.45 1 1v2z" fill="#444444"></path>
        </symbol>

    </g>
    <g id="itemsContainer">
        <a class="item" id="item-1" xlink:href="" xlink:title="" transform="matrix(1,0,0,1,0,0)" data-svg-origin="250 250" style="">
            <path fill="none" stroke="#111" stroke-width="1" class="sector" d="M250,250 l250,0 A250,250 0 0,0 426.7766952966369,73.22330470336314 z"></path>
            <use xlink:href="#icon-1" width="40" height="40" x="387.05950927734375" y="164.94381713867188" transform="rotate(67.5 407.05950927734375 184.94381713867188)"></use>
        </a>
        <a class="item" id="item-2" xlink:href="" xlink:title="" transform="matrix(0.7071,-0.7071,0.7071,0.7071,-103.55339059327378,249.99999999999997)" data-svg-origin="250 250" style="">
            <path fill="none" stroke="#111" stroke-width="1" class="sector" d="M250,250 l250,0 A250,250 0 0,0 426.7766952966369,73.22330470336314 z"></path>
            <use xlink:href="#icon-2" width="40" height="40" x="387.05950927734375" y="164.94381713867188" transform="rotate(67.5 407.05950927734375 184.94381713867188)"></use>
        </a>
        <a class="item" id="item-3" xlink:href="" xlink:title="" transform="matrix(0,-1,1,0,0,500)" data-svg-origin="250 250" style="">
            <path fill="none" stroke="#111" stroke-width="1" class="sector" d="M250,250 l250,0 A250,250 0 0,0 426.7766952966369,73.22330470336314 z"></path>
            <use xlink:href="#icon-3" width="40" height="40" x="387.05950927734375" y="164.94381713867188" transform="rotate(67.5 407.05950927734375 184.94381713867188)"></use>
        </a>
        <a class="item" id="item-4" xlink:href="" xlink:title="" transform="matrix(-0.7071,-0.7071,0.7071,-0.7071,249.99999999999997,603.5533905932738)" data-svg-origin="250 250" style="">
            <path fill="none" stroke="#111" stroke-width="1" class="sector" d="M250,250 l250,0 A250,250 0 0,0 426.7766952966369,73.22330470336314 z"></path>
            <use xlink:href="#icon-4" width="40" height="40" x="387.05950927734375" y="164.94381713867188" transform="rotate(67.5 407.05950927734375 184.94381713867188)"></use>
        </a>
    </g>
    <g id="trigger" class="trigger menu-trigger">
        <circle cx="250" cy="250" r="30"></circle>
        <text text-anchor="middle" x="250" y="245" fill="#fff" font-size=".7em" font-family="verdana">Follow</text>
    </g>
</svg>
